0
SECTION
2
HEADER
9
$INSUNITS
70
4
9
$ACADVER
1
AC1014
9
$HANDSEED
5
FFFF
0
ENDSEC
0
SECTION
2
TABLES
0
TABLE
2
VPORT
5
8
100
AcDbSymbolTable
0
ENDTAB
0
TABLE
2
LTYPE
5
5
100
AcDbSymbolTable
70
2
0
LTYPE
5
14
100
AcDbSymbolTableRecord
100
AcDbLinetypeTableRecord
2
BYBLOCK
70
0
0
LTYPE
5
15
100
AcDbSymbolTableRecord
100
AcDbLinetypeTableRecord
2
BYLAYER
70
0
0
ENDTAB
0
TABLE
2
LAYER
5
2
100
AcDbSymbolTable
70
3
0
LAYER
5
50
100
AcDbSymbolTableRecord
100
AcDbLayerTableRecord
2
0
70
0
6
CONTINUOUS
0
LAYER
5
51
100
AcDbSymbolTableRecord
100
AcDbLayerTableRecord
2
CUTOUTS
70
0
62
1
6
CONTINUOUS
0
LAYER
5
52
100
AcDbSymbolTableRecord
100
AcDbLayerTableRecord
2
PERIMETER
70
0
62
5
6
CONTINUOUS
0
ENDTAB
0
TABLE
2
STYLE
5
3
100
AcDbSymbolTable
70
1
0
STYLE
5
11
100
AcDbSymbolTableRecord
100
AcDbTextStyleTableRecord
2
STANDARD
70
0
0
ENDTAB
0
TABLE
2
VIEW
5
6
100
AcDbSymbolTable
0
ENDTAB
0
TABLE
2
UCS
5
7
100
AcDbSymbolTable
0
ENDTAB
0
TABLE
2
APPID
5
9
100
AcDbSymbolTable
70
1
0
APPID
5
12
100
AcDbSymbolTableRecord
100
AcDbRegAppTableRecord
2
ACAD
70
0
0
ENDTAB
0
TABLE
2
DIMSTYLE
5
A
100
AcDbSymbolTable
0
ENDTAB
0
TABLE
2
BLOCK_RECORD
5
1
100
AcDbSymbolTable
70
2
0
BLOCK_RECORD
5
1F
100
AcDbSymbolTableRecord
100
AcDbBlockTableRecord
2
*MODEL_SPACE
0
BLOCK_RECORD
5
1B
100
AcDbSymbolTableRecord
100
AcDbBlockTableRecord
2
*PAPER_SPACE
0
ENDTAB
0
ENDSEC
0
SECTION
2
BLOCKS
0
BLOCK
5
20
100
AcDbEntity
100
AcDbBlockBegin
2
*MODEL_SPACE
0
ENDBLK
5
21
100
AcDbEntity
100
AcDbBlockEnd
0
BLOCK
5
1C
100
AcDbEntity
100
AcDbBlockBegin
2
*PAPER_SPACE
0
ENDBLK
5
1D
100
AcDbEntity
100
AcDbBlockEnd
0
ENDSEC
0
SECTION
2
ENTITIES
0
CIRCLE
5
100
100
AcDbEntity
8
CUTOUTS
100
AcDbCircle
10
0.031754163760666643
20
8.0817087569064583
30
0
40
1.0000000000000142
210
0
220
0
230
1
0
CIRCLE
5
101
100
AcDbEntity
8
CUTOUTS
100
AcDbCircle
10
19.081754163492022
20
50.631708757356471
30
0
40
1.0000000000000142
210
0
220
0
230
1
0
CIRCLE
5
102
100
AcDbEntity
8
CUTOUTS
100
AcDbCircle
10
-19.01824583650793
20
50.631708757356471
30
0
40
1.0000000000000142
210
0
220
0
230
1
0
CIRCLE
5
103
100
AcDbEntity
8
CUTOUTS
100
AcDbCircle
10
19.081754163760678
20
-10.968291242893571
30
0
40
1.0000000000000142
210
0
220
0
230
1
0
CIRCLE
5
104
100
AcDbEntity
8
CUTOUTS
100
AcDbCircle
10
-35.343245836708093
20
38.881708757706441
30
0
40
1.0000000000000142
210
0
220
0
230
1
0
CIRCLE
5
105
100
AcDbEntity
8
CUTOUTS
100
AcDbCircle
10
0.031754163760666643
20
-30.018291242993591
30
0
40
1.0000000000000142
210
0
220
0
230
1
0
CIRCLE
5
106
100
AcDbEntity
8
CUTOUTS
100
AcDbCircle
10
-19.018245836998702
20
-62.083722809911741
30
0
40
1.0000000000000142
210
0
220
0
230
1
0
CIRCLE
5
107
100
AcDbEntity
8
CUTOUTS
100
AcDbCircle
10
19.256754162063103
20
-62.131541542867481
30
0
40
1.0000000000000142
210
0
220
0
230
1
0
CIRCLE
5
108
100
AcDbEntity
8
CUTOUTS
100
AcDbCircle
10
-19.018245837757917
20
-10.968291242893571
30
0
40
1.0000000000000142
210
0
220
0
230
1
0
CIRCLE
5
109
100
AcDbEntity
8
CUTOUTS
100
AcDbCircle
10
-22.34324583670805
20
38.881708757706441
30
0
40
1.0000000000000142
210
0
220
0
230
1
0
CIRCLE
5
10A
100
AcDbEntity
8
CUTOUTS
100
AcDbCircle
10
22.406754164229454
20
38.881708757706441
30
0
40
1.0000000000000142
210
0
220
0
230
1
0
CIRCLE
5
10B
100
AcDbEntity
8
CUTOUTS
100
AcDbCircle
10
35.406754164229497
20
38.881708757706441
30
0
40
1.0000000000000142
210
0
220
0
230
1
0
LINE
5
10C
100
AcDbEntity
8
CUTOUTS
100
AcDbLine
10
-35.893245836573726
20
-23.968291243135909
30
0
11
-34.893245836123725
21
-22.968291242685908
31
0
0
LINE
5
10D
100
AcDbEntity
8
CUTOUTS
100
AcDbLine
10
-34.893245836123725
20
-22.968291242685908
30
0
11
-22.193245836423685
21
-22.968291242685908
31
0
0
LINE
5
10E
100
AcDbEntity
8
CUTOUTS
100
AcDbLine
10
-22.193245836423685
20
-22.968291242685908
30
0
11
-21.193245836173773
21
-23.968291242935926
31
0
0
LINE
5
10F
100
AcDbEntity
8
CUTOUTS
100
AcDbLine
10
-21.193245836173773
20
-23.968291242935926
30
0
11
-21.193245836173773
21
-36.068291243635962
31
0
0
LINE
5
110
100
AcDbEntity
8
CUTOUTS
100
AcDbLine
10
-21.193245836173773
20
-36.068291243635962
30
0
11
-22.193245837673672
21
-37.068291243035922
31
0
0
LINE
5
111
100
AcDbEntity
8
CUTOUTS
100
AcDbLine
10
-22.193245837673672
20
-37.068291243035922
30
0
11
-34.893245837373712
21
-37.068291243035922
31
0
0
LINE
5
112
100
AcDbEntity
8
CUTOUTS
100
AcDbLine
10
-34.893245837373712
20
-37.068291243035922
30
0
11
-35.893245836573726
21
-36.068291243835908
31
0
0
LINE
5
113
100
AcDbEntity
8
CUTOUTS
100
AcDbLine
10
-35.893245836573726
20
-36.068291243835908
30
0
11
-35.893245836573726
21
-23.968291243135909
31
0
0
LINE
5
114
100
AcDbEntity
8
CUTOUTS
100
AcDbLine
10
21.256754162176321
20
-43.018291243135955
30
0
11
22.256754162626251
21
-42.018291242685955
31
0
0
LINE
5
115
100
AcDbEntity
8
CUTOUTS
100
AcDbLine
10
22.256754162626251
20
-42.018291242685955
30
0
11
34.956754162326291
21
-42.018291242685955
31
0
0
LINE
5
116
100
AcDbEntity
8
CUTOUTS
100
AcDbLine
10
34.956754162326291
20
-42.018291242685955
30
0
11
35.956754162576345
21
-43.018291242935938
31
0
0
LINE
5
117
100
AcDbEntity
8
CUTOUTS
100
AcDbLine
10
35.956754162576345
20
-43.018291242935938
30
0
11
35.956754162576345
21
-55.118291243635973
31
0
0
LINE
5
118
100
AcDbEntity
8
CUTOUTS
100
AcDbLine
10
35.956754162576345
20
-55.118291243635973
30
0
11
34.956754161076518
21
-56.118291243035934
31
0
0
LINE
5
119
100
AcDbEntity
8
CUTOUTS
100
AcDbLine
10
34.956754161076518
20
-56.118291243035934
30
0
11
22.256754161376264
21
-56.118291243035934
31
0
0
LINE
5
11A
100
AcDbEntity
8
CUTOUTS
100
AcDbLine
10
22.256754161376264
20
-56.118291243035934
30
0
11
21.256754162176321
21
-55.11829124383592
31
0
0
LINE
5
11B
100
AcDbEntity
8
CUTOUTS
100
AcDbLine
10
21.256754162176321
20
-55.11829124383592
30
0
11
21.256754162176321
21
-43.018291243135955
31
0
0
LINE
5
11C
100
AcDbEntity
8
CUTOUTS
100
AcDbLine
10
34.956754162326291
20
-22.968291242685908
30
0
11
35.956754162576345
21
-23.968291242935926
31
0
0
LINE
5
11D
100
AcDbEntity
8
CUTOUTS
100
AcDbLine
10
35.956754162576345
20
-23.968291242935926
30
0
11
35.956754162576345
21
-36.068291243635962
31
0
0
LINE
5
11E
100
AcDbEntity
8
CUTOUTS
100
AcDbLine
10
35.956754162576345
20
-36.068291243635962
30
0
11
34.956754161076518
21
-37.068291243035922
31
0
0
LINE
5
11F
100
AcDbEntity
8
CUTOUTS
100
AcDbLine
10
34.956754161076518
20
-37.068291243035922
30
0
11
22.256754161376264
21
-37.068291243035922
31
0
0
LINE
5
120
100
AcDbEntity
8
CUTOUTS
100
AcDbLine
10
22.256754161376264
20
-37.068291243035922
30
0
11
21.256754162176321
21
-36.068291243835908
31
0
0
LINE
5
121
100
AcDbEntity
8
CUTOUTS
100
AcDbLine
10
21.256754162176321
20
-36.068291243835908
30
0
11
21.256754162176321
21
-23.968291243135909
31
0
0
LINE
5
122
100
AcDbEntity
8
CUTOUTS
100
AcDbLine
10
21.256754162176321
20
-23.968291243135909
30
0
11
22.256754162626251
21
-22.968291242685908
31
0
0
LINE
5
123
100
AcDbEntity
8
CUTOUTS
100
AcDbLine
10
22.256754162626251
20
-22.968291242685908
30
0
11
34.956754162326291
21
-22.968291242685908
31
0
0
LINE
5
124
100
AcDbEntity
8
CUTOUTS
100
AcDbLine
10
15.906754161076506
20
-37.068291243035922
30
0
11
3.2067541613762529
21
-37.068291243035922
31
0
0
LINE
5
125
100
AcDbEntity
8
CUTOUTS
100
AcDbLine
10
3.2067541613762529
20
-37.068291243035922
30
0
11
2.2067541621763098
21
-36.068291243835908
31
0
0
LINE
5
126
100
AcDbEntity
8
CUTOUTS
100
AcDbLine
10
2.2067541621763098
20
-36.068291243835908
30
0
11
2.2067541621763098
21
-23.968291243135909
31
0
0
LINE
5
127
100
AcDbEntity
8
CUTOUTS
100
AcDbLine
10
2.2067541621763098
20
-23.968291243135909
30
0
11
3.2067541626262397
21
-22.968291242685908
31
0
0
LINE
5
128
100
AcDbEntity
8
CUTOUTS
100
AcDbLine
10
3.2067541626262397
20
-22.968291242685908
30
0
11
15.90675416232628
21
-22.968291242685908
31
0
0
LINE
5
129
100
AcDbEntity
8
CUTOUTS
100
AcDbLine
10
15.90675416232628
20
-22.968291242685908
30
0
11
16.906754162576334
21
-23.968291242935926
31
0
0
LINE
5
12A
100
AcDbEntity
8
CUTOUTS
100
AcDbLine
10
16.906754162576334
20
-23.968291242935926
30
0
11
16.906754162576334
21
-36.068291243635962
31
0
0
LINE
5
12B
100
AcDbEntity
8
CUTOUTS
100
AcDbLine
10
16.906754162576334
20
-36.068291243635962
30
0
11
15.906754161076506
21
-37.068291243035922
31
0
0
LINE
5
12C
100
AcDbEntity
8
CUTOUTS
100
AcDbLine
10
-16.843245837823702
20
-36.068291243835908
30
0
11
-16.843245837823702
21
-23.968291243135909
31
0
0
LINE
5
12D
100
AcDbEntity
8
CUTOUTS
100
AcDbLine
10
-16.843245837823702
20
-23.968291243135909
30
0
11
-15.843245837373701
21
-22.968291242685908
31
0
0
LINE
5
12E
100
AcDbEntity
8
CUTOUTS
100
AcDbLine
10
-15.843245837373701
20
-22.968291242685908
30
0
11
-3.1432458376737316
21
-22.968291242685908
31
0
0
LINE
5
12F
100
AcDbEntity
8
CUTOUTS
100
AcDbLine
10
-3.1432458376737316
20
-22.968291242685908
30
0
11
-2.1432458374236774
21
-23.968291242935926
31
0
0
LINE
5
130
100
AcDbEntity
8
CUTOUTS
100
AcDbLine
10
-2.1432458374236774
20
-23.968291242935926
30
0
11
-2.1432458374236774
21
-36.068291243635962
31
0
0
LINE
5
131
100
AcDbEntity
8
CUTOUTS
100
AcDbLine
10
-2.1432458374236774
20
-36.068291243635962
30
0
11
-3.1432458389237183
21
-37.068291243035922
31
0
0
LINE
5
132
100
AcDbEntity
8
CUTOUTS
100
AcDbLine
10
-3.1432458389237183
20
-37.068291243035922
30
0
11
-15.843245838623758
21
-37.068291243035922
31
0
0
LINE
5
133
100
AcDbEntity
8
CUTOUTS
100
AcDbLine
10
-15.843245838623758
20
-37.068291243035922
30
0
11
-16.843245837823702
21
-36.068291243835908
31
0
0
LINE
5
134
100
AcDbEntity
8
CUTOUTS
100
AcDbLine
10
3.2067541613762529
20
-18.018291243035911
30
0
11
2.2067541621763098
21
-17.018291243835897
31
0
0
LINE
5
135
100
AcDbEntity
8
CUTOUTS
100
AcDbLine
10
2.2067541621763098
20
-17.018291243835897
30
0
11
2.2067541621763098
21
-4.9182912431358972
31
0
0
LINE
5
136
100
AcDbEntity
8
CUTOUTS
100
AcDbLine
10
2.2067541621763098
20
-4.9182912431358972
30
0
11
3.2067541626262397
21
-3.9182912426858962
31
0
0
LINE
5
137
100
AcDbEntity
8
CUTOUTS
100
AcDbLine
10
3.2067541626262397
20
-3.9182912426858962
30
0
11
15.90675416232628
21
-3.9182912426858962
31
0
0
LINE
5
138
100
AcDbEntity
8
CUTOUTS
100
AcDbLine
10
15.90675416232628
20
-3.9182912426858962
30
0
11
16.906754162576334
21
-4.9182912429359149
31
0
0
LINE
5
139
100
AcDbEntity
8
CUTOUTS
100
AcDbLine
10
16.906754162576334
20
-4.9182912429359149
30
0
11
16.906754162576334
21
-17.01829124363595
31
0
0
LINE
5
13A
100
AcDbEntity
8
CUTOUTS
100
AcDbLine
10
16.906754162576334
20
-17.01829124363595
30
0
11
15.906754161076506
21
-18.018291243035911
31
0
0
LINE
5
13B
100
AcDbEntity
8
CUTOUTS
100
AcDbLine
10
15.906754161076506
20
-18.018291243035911
30
0
11
3.2067541613762529
21
-18.018291243035911
31
0
0
LINE
5
13C
100
AcDbEntity
8
CUTOUTS
100
AcDbLine
10
-3.1432458376737316
20
-3.9182912426858962
30
0
11
-2.1432458374236774
21
-4.9182912429359149
31
0
0
LINE
5
13D
100
AcDbEntity
8
CUTOUTS
100
AcDbLine
10
-2.1432458374236774
20
-4.9182912429359149
30
0
11
-2.1432458374236774
21
-17.01829124363595
31
0
0
LINE
5
13E
100
AcDbEntity
8
CUTOUTS
100
AcDbLine
10
-2.1432458374236774
20
-17.01829124363595
30
0
11
-3.1432458389237183
21
-18.018291243035911
31
0
0
LINE
5
13F
100
AcDbEntity
8
CUTOUTS
100
AcDbLine
10
-3.1432458389237183
20
-18.018291243035911
30
0
11
-15.843245838623758
21
-18.018291243035911
31
0
0
LINE
5
140
100
AcDbEntity
8
CUTOUTS
100
AcDbLine
10
-15.843245838623758
20
-18.018291243035911
30
0
11
-16.843245837823702
21
-17.018291243835897
31
0
0
LINE
5
141
100
AcDbEntity
8
CUTOUTS
100
AcDbLine
10
-16.843245837823702
20
-17.018291243835897
30
0
11
-16.843245837823702
21
-4.9182912431358972
31
0
0
LINE
5
142
100
AcDbEntity
8
CUTOUTS
100
AcDbLine
10
-16.843245837823702
20
-4.9182912431358972
30
0
11
-15.843245837373701
21
-3.9182912426858962
31
0
0
LINE
5
143
100
AcDbEntity
8
CUTOUTS
100
AcDbLine
10
-15.843245837373701
20
-3.9182912426858962
30
0
11
-3.1432458376737316
21
-3.9182912426858962
31
0
0
LINE
5
144
100
AcDbEntity
8
CUTOUTS
100
AcDbLine
10
-21.193245836173773
20
-17.01829124363595
30
0
11
-22.193245837673672
21
-18.018291243035911
31
0
0
LINE
5
145
100
AcDbEntity
8
CUTOUTS
100
AcDbLine
10
-22.193245837673672
20
-18.018291243035911
30
0
11
-34.893245837373712
21
-18.018291243035911
31
0
0
LINE
5
146
100
AcDbEntity
8
CUTOUTS
100
AcDbLine
10
-34.893245837373712
20
-18.018291243035911
30
0
11
-35.893245836573726
21
-17.018291243835897
31
0
0
LINE
5
147
100
AcDbEntity
8
CUTOUTS
100
AcDbLine
10
-35.893245836573726
20
-17.018291243835897
30
0
11
-35.893245836573726
21
-4.9182912431358972
31
0
0
LINE
5
148
100
AcDbEntity
8
CUTOUTS
100
AcDbLine
10
-35.893245836573726
20
-4.9182912431358972
30
0
11
-34.893245836123725
21
-3.9182912426858962
31
0
0
LINE
5
149
100
AcDbEntity
8
CUTOUTS
100
AcDbLine
10
-34.893245836123725
20
-3.9182912426858962
30
0
11
-22.193245836423685
21
-3.9182912426858962
31
0
0
LINE
5
14A
100
AcDbEntity
8
CUTOUTS
100
AcDbLine
10
-22.193245836423685
20
-3.9182912426858962
30
0
11
-21.193245836173773
21
-4.9182912429359149
31
0
0
LINE
5
14B
100
AcDbEntity
8
CUTOUTS
100
AcDbLine
10
-21.193245836173773
20
-4.9182912429359149
30
0
11
-21.193245836173773
21
-17.01829124363595
31
0
0
LINE
5
14C
100
AcDbEntity
8
CUTOUTS
100
AcDbLine
10
3.2067541626262397
20
15.13170875731408
30
0
11
15.90675416232628
21
15.13170875731408
31
0
0
LINE
5
14D
100
AcDbEntity
8
CUTOUTS
100
AcDbLine
10
15.90675416232628
20
15.13170875731408
30
0
11
16.906754162576334
21
14.131708757064096
31
0
0
LINE
5
14E
100
AcDbEntity
8
CUTOUTS
100
AcDbLine
10
16.906754162576334
20
14.131708757064096
30
0
11
16.906754162576334
21
2.0317087563640612
31
0
0
LINE
5
14F
100
AcDbEntity
8
CUTOUTS
100
AcDbLine
10
16.906754162576334
20
2.0317087563640612
30
0
11
15.906754161076506
21
1.0317087569641004
31
0
0
LINE
5
150
100
AcDbEntity
8
CUTOUTS
100
AcDbLine
10
15.906754161076506
20
1.0317087569641004
30
0
11
3.2067541613762529
21
1.0317087569641004
31
0
0
LINE
5
151
100
AcDbEntity
8
CUTOUTS
100
AcDbLine
10
3.2067541613762529
20
1.0317087569641004
30
0
11
2.2067541621763098
21
2.0317087561641145
31
0
0
LINE
5
152
100
AcDbEntity
8
CUTOUTS
100
AcDbLine
10
2.2067541621763098
20
2.0317087561641145
30
0
11
2.2067541621763098
21
14.131708756864079
31
0
0
LINE
5
153
100
AcDbEntity
8
CUTOUTS
100
AcDbLine
10
2.2067541621763098
20
14.131708756864079
30
0
11
3.2067541626262397
21
15.13170875731408
31
0
0
LINE
5
154
100
AcDbEntity
8
CUTOUTS
100
AcDbLine
10
-16.843245837823702
20
2.0317087561641145
30
0
11
-16.843245837823702
21
14.131708756864079
31
0
0
LINE
5
155
100
AcDbEntity
8
CUTOUTS
100
AcDbLine
10
-16.843245837823702
20
14.131708756864079
30
0
11
-15.843245837373701
21
15.13170875731408
31
0
0
LINE
5
156
100
AcDbEntity
8
CUTOUTS
100
AcDbLine
10
-15.843245837373701
20
15.13170875731408
30
0
11
-3.1432458376737316
21
15.13170875731408
31
0
0
LINE
5
157
100
AcDbEntity
8
CUTOUTS
100
AcDbLine
10
-3.1432458376737316
20
15.13170875731408
30
0
11
-2.1432458374236774
21
14.131708757064096
31
0
0
LINE
5
158
100
AcDbEntity
8
CUTOUTS
100
AcDbLine
10
-2.1432458374236774
20
14.131708757064096
30
0
11
-2.1432458374236774
21
2.0317087563640612
31
0
0
LINE
5
159
100
AcDbEntity
8
CUTOUTS
100
AcDbLine
10
-2.1432458374236774
20
2.0317087563640612
30
0
11
-3.1432458389237183
21
1.0317087569641004
31
0
0
LINE
5
15A
100
AcDbEntity
8
CUTOUTS
100
AcDbLine
10
-3.1432458389237183
20
1.0317087569641004
30
0
11
-15.843245838623758
21
1.0317087569641004
31
0
0
LINE
5
15B
100
AcDbEntity
8
CUTOUTS
100
AcDbLine
10
-15.843245838623758
20
1.0317087569641004
30
0
11
-16.843245837823702
21
2.0317087561641145
31
0
0
LINE
5
15C
100
AcDbEntity
8
CUTOUTS
100
AcDbLine
10
-34.893245837373712
20
1.0317087569641004
30
0
11
-35.893245836573726
21
2.0317087561641145
31
0
0
LINE
5
15D
100
AcDbEntity
8
CUTOUTS
100
AcDbLine
10
-35.893245836573726
20
2.0317087561641145
30
0
11
-35.893245836573726
21
14.131708756864079
31
0
0
LINE
5
15E
100
AcDbEntity
8
CUTOUTS
100
AcDbLine
10
-35.893245836573726
20
14.131708756864079
30
0
11
-34.893245836123725
21
15.13170875731408
31
0
0
LINE
5
15F
100
AcDbEntity
8
CUTOUTS
100
AcDbLine
10
-34.893245836123725
20
15.13170875731408
30
0
11
-22.193245836423685
21
15.13170875731408
31
0
0
LINE
5
160
100
AcDbEntity
8
CUTOUTS
100
AcDbLine
10
-22.193245836423685
20
15.13170875731408
30
0
11
-21.193245836173773
21
14.131708757064096
31
0
0
LINE
5
161
100
AcDbEntity
8
CUTOUTS
100
AcDbLine
10
-21.193245836173773
20
14.131708757064096
30
0
11
-21.193245836173773
21
2.0317087563640612
31
0
0
LINE
5
162
100
AcDbEntity
8
CUTOUTS
100
AcDbLine
10
-21.193245836173773
20
2.0317087563640612
30
0
11
-22.193245837673672
21
1.0317087569641004
31
0
0
LINE
5
163
100
AcDbEntity
8
CUTOUTS
100
AcDbLine
10
-22.193245837673672
20
1.0317087569641004
30
0
11
-34.893245837373712
21
1.0317087569641004
31
0
0
LINE
5
164
100
AcDbEntity
8
CUTOUTS
100
AcDbLine
10
35.956754162576274
20
21.081708756364073
30
0
11
34.956754161076447
21
20.081708756964112
31
0
0
LINE
5
165
100
AcDbEntity
8
CUTOUTS
100
AcDbLine
10
34.956754161076447
20
20.081708756964112
30
0
11
22.256754161376264
21
20.081708756964112
31
0
0
LINE
5
166
100
AcDbEntity
8
CUTOUTS
100
AcDbLine
10
22.256754161376264
20
20.081708756964112
30
0
11
21.256754162176321
21
21.081708756164055
31
0
0
LINE
5
167
100
AcDbEntity
8
CUTOUTS
100
AcDbLine
10
21.256754162176321
20
21.081708756164055
30
0
11
21.256754162176321
21
33.18170875686409
31
0
0
LINE
5
168
100
AcDbEntity
8
CUTOUTS
100
AcDbLine
10
21.256754162176321
20
33.18170875686409
30
0
11
22.256754162626251
21
34.181708757314091
31
0
0
LINE
5
169
100
AcDbEntity
8
CUTOUTS
100
AcDbLine
10
22.256754162626251
20
34.181708757314091
30
0
11
34.956754162326291
21
34.181708757314091
31
0
0
LINE
5
16A
100
AcDbEntity
8
CUTOUTS
100
AcDbLine
10
34.956754162326291
20
34.181708757314091
30
0
11
35.956754162576274
21
33.181708757064037
31
0
0
LINE
5
16B
100
AcDbEntity
8
CUTOUTS
100
AcDbLine
10
35.956754162576274
20
33.181708757064037
30
0
11
35.956754162576274
21
21.081708756364073
31
0
0
LINE
5
16C
100
AcDbEntity
8
CUTOUTS
100
AcDbLine
10
15.906754161076506
20
20.081708756964112
30
0
11
3.2067541613762529
21
20.081708756964112
31
0
0
LINE
5
16D
100
AcDbEntity
8
CUTOUTS
100
AcDbLine
10
3.2067541613762529
20
20.081708756964112
30
0
11
2.2067541621763098
21
21.081708756164055
31
0
0
LINE
5
16E
100
AcDbEntity
8
CUTOUTS
100
AcDbLine
10
2.2067541621763098
20
21.081708756164055
30
0
11
2.2067541621763098
21
33.18170875686409
31
0
0
LINE
5
16F
100
AcDbEntity
8
CUTOUTS
100
AcDbLine
10
2.2067541621763098
20
33.18170875686409
30
0
11
3.2067541626262397
21
34.181708757314091
31
0
0
LINE
5
170
100
AcDbEntity
8
CUTOUTS
100
AcDbLine
10
3.2067541626262397
20
34.181708757314091
30
0
11
15.90675416232628
21
34.181708757314091
31
0
0
LINE
5
171
100
AcDbEntity
8
CUTOUTS
100
AcDbLine
10
15.90675416232628
20
34.181708757314091
30
0
11
16.906754162576334
21
33.181708757064037
31
0
0
LINE
5
172
100
AcDbEntity
8
CUTOUTS
100
AcDbLine
10
16.906754162576334
20
33.181708757064037
30
0
11
16.906754162576334
21
21.081708756364073
31
0
0
LINE
5
173
100
AcDbEntity
8
CUTOUTS
100
AcDbLine
10
16.906754162576334
20
21.081708756364073
30
0
11
15.906754161076506
21
20.081708756964112
31
0
0
LINE
5
174
100
AcDbEntity
8
CUTOUTS
100
AcDbLine
10
21.256754162176321
20
56.681708757214118
30
0
11
22.256754162626251
21
57.681708757664119
31
0
0
LINE
5
175
100
AcDbEntity
8
CUTOUTS
100
AcDbLine
10
22.256754162626251
20
57.681708757664119
30
0
11
34.956754162326291
21
57.681708757664047
31
0
0
LINE
5
176
100
AcDbEntity
8
CUTOUTS
100
AcDbLine
10
34.956754162326291
20
57.681708757664047
30
0
11
35.956754162576274
21
56.681708757413993
31
0
0
LINE
5
177
100
AcDbEntity
8
CUTOUTS
100
AcDbLine
10
35.956754162576274
20
56.681708757413993
30
0
11
35.956754162576274
21
44.581708756714029
31
0
0
LINE
5
178
100
AcDbEntity
8
CUTOUTS
100
AcDbLine
10
35.956754162576274
20
44.581708756714029
30
0
11
34.956754161076447
21
43.581708757314139
31
0
0
LINE
5
179
100
AcDbEntity
8
CUTOUTS
100
AcDbLine
10
34.956754161076447
20
43.581708757314139
30
0
11
22.256754161376264
21
43.581708757314139
31
0
0
LINE
5
17A
100
AcDbEntity
8
CUTOUTS
100
AcDbLine
10
22.256754161376264
20
43.581708757314139
30
0
11
21.256754162176321
21
44.581708756514153
31
0
0
LINE
5
17B
100
AcDbEntity
8
CUTOUTS
100
AcDbLine
10
21.256754162176321
20
44.581708756514153
30
0
11
21.256754162176321
21
56.681708757214118
31
0
0
LINE
5
17C
100
AcDbEntity
8
CUTOUTS
100
AcDbLine
10
-3.1432458389237183
20
20.081708756964112
30
0
11
-15.843245838623758
21
20.081708756964112
31
0
0
LINE
5
17D
100
AcDbEntity
8
CUTOUTS
100
AcDbLine
10
-15.843245838623758
20
20.081708756964112
30
0
11
-16.843245837823702
21
21.081708756164055
31
0
0
LINE
5
17E
100
AcDbEntity
8
CUTOUTS
100
AcDbLine
10
-16.843245837823702
20
21.081708756164055
30
0
11
-16.843245837823702
21
33.18170875686409
31
0
0
LINE
5
17F
100
AcDbEntity
8
CUTOUTS
100
AcDbLine
10
-16.843245837823702
20
33.18170875686409
30
0
11
-15.843245837373701
21
34.181708757314091
31
0
0
LINE
5
180
100
AcDbEntity
8
CUTOUTS
100
AcDbLine
10
-15.843245837373701
20
34.181708757314091
30
0
11
-3.1432458376737316
21
34.181708757314091
31
0
0
LINE
5
181
100
AcDbEntity
8
CUTOUTS
100
AcDbLine
10
-3.1432458376737316
20
34.181708757314091
30
0
11
-2.1432458374236774
21
33.181708757064108
31
0
0
LINE
5
182
100
AcDbEntity
8
CUTOUTS
100
AcDbLine
10
-2.1432458374236774
20
33.181708757064108
30
0
11
-2.1432458374236774
21
21.081708756364073
31
0
0
LINE
5
183
100
AcDbEntity
8
CUTOUTS
100
AcDbLine
10
-2.1432458374236774
20
21.081708756364073
30
0
11
-3.1432458389237183
21
20.081708756964112
31
0
0
LINE
5
184
100
AcDbEntity
8
CUTOUTS
100
AcDbLine
10
2.2067541621763098
20
44.581708756514153
30
0
11
2.2067541621763098
21
56.681708757214118
31
0
0
LINE
5
185
100
AcDbEntity
8
CUTOUTS
100
AcDbLine
10
2.2067541621763098
20
56.681708757214118
30
0
11
3.2067541626262397
21
57.681708757664119
31
0
0
LINE
5
186
100
AcDbEntity
8
CUTOUTS
100
AcDbLine
10
3.2067541626262397
20
57.681708757664119
30
0
11
15.90675416232628
21
57.681708757664119
31
0
0
LINE
5
187
100
AcDbEntity
8
CUTOUTS
100
AcDbLine
10
15.90675416232628
20
57.681708757664119
30
0
11
16.906754162576334
21
56.681708757413993
31
0
0
LINE
5
188
100
AcDbEntity
8
CUTOUTS
100
AcDbLine
10
16.906754162576334
20
56.681708757413993
30
0
11
16.906754162576334
21
44.581708756714029
31
0
0
LINE
5
189
100
AcDbEntity
8
CUTOUTS
100
AcDbLine
10
16.906754162576334
20
44.581708756714029
30
0
11
15.906754161076506
21
43.581708757314139
31
0
0
LINE
5
18A
100
AcDbEntity
8
CUTOUTS
100
AcDbLine
10
15.906754161076506
20
43.581708757314139
30
0
11
3.2067541613762529
21
43.581708757314139
31
0
0
LINE
5
18B
100
AcDbEntity
8
CUTOUTS
100
AcDbLine
10
3.2067541613762529
20
43.581708757314139
30
0
11
2.2067541621763098
21
44.581708756514153
31
0
0
LINE
5
18C
100
AcDbEntity
8
CUTOUTS
100
AcDbLine
10
-16.843245837823702
20
56.681708757214118
30
0
11
-15.843245837373701
21
57.681708757664119
31
0
0
LINE
5
18D
100
AcDbEntity
8
CUTOUTS
100
AcDbLine
10
-15.843245837373701
20
57.681708757664119
30
0
11
-3.1432458376737316
21
57.681708757664047
31
0
0
LINE
5
18E
100
AcDbEntity
8
CUTOUTS
100
AcDbLine
10
-3.1432458376737316
20
57.681708757664047
30
0
11
-2.1432458374236774
21
56.681708757413993
31
0
0
LINE
5
18F
100
AcDbEntity
8
CUTOUTS
100
AcDbLine
10
-2.1432458374236774
20
56.681708757413993
30
0
11
-2.1432458374236774
21
44.581708756714029
31
0
0
LINE
5
190
100
AcDbEntity
8
CUTOUTS
100
AcDbLine
10
-2.1432458374236774
20
44.581708756714029
30
0
11
-3.1432458389237183
21
43.581708757314139
31
0
0
LINE
5
191
100
AcDbEntity
8
CUTOUTS
100
AcDbLine
10
-3.1432458389237183
20
43.581708757314139
30
0
11
-15.843245838623758
21
43.581708757314139
31
0
0
LINE
5
192
100
AcDbEntity
8
CUTOUTS
100
AcDbLine
10
-15.843245838623758
20
43.581708757314139
30
0
11
-16.843245837823702
21
44.581708756514153
31
0
0
LINE
5
193
100
AcDbEntity
8
CUTOUTS
100
AcDbLine
10
-16.843245837823702
20
44.581708756514153
30
0
11
-16.843245837823702
21
56.681708757214118
31
0
0
LINE
5
194
100
AcDbEntity
8
CUTOUTS
100
AcDbLine
10
-35.893245836573726
20
56.681708757214118
30
0
11
-34.893245836123725
21
57.681708757664119
31
0
0
LINE
5
195
100
AcDbEntity
8
CUTOUTS
100
AcDbLine
10
-34.893245836123725
20
57.681708757664119
30
0
11
-22.193245836423685
21
57.681708757664047
31
0
0
LINE
5
196
100
AcDbEntity
8
CUTOUTS
100
AcDbLine
10
-22.193245836423685
20
57.681708757664047
30
0
11
-21.193245836173773
21
56.681708757413993
31
0
0
LINE
5
197
100
AcDbEntity
8
CUTOUTS
100
AcDbLine
10
-21.193245836173773
20
56.681708757413993
30
0
11
-21.193245836173773
21
44.581708756714029
31
0
0
LINE
5
198
100
AcDbEntity
8
CUTOUTS
100
AcDbLine
10
-21.193245836173773
20
44.581708756714029
30
0
11
-22.193245837673672
21
43.581708757314139
31
0
0
LINE
5
199
100
AcDbEntity
8
CUTOUTS
100
AcDbLine
10
-22.193245837673672
20
43.581708757314139
30
0
11
-34.893245837373712
21
43.581708757314139
31
0
0
LINE
5
19A
100
AcDbEntity
8
CUTOUTS
100
AcDbLine
10
-34.893245837373712
20
43.581708757314139
30
0
11
-35.893245836573726
21
44.581708756514153
31
0
0
LINE
5
19B
100
AcDbEntity
8
CUTOUTS
100
AcDbLine
10
-35.893245836573726
20
44.581708756514153
30
0
11
-35.893245836573726
21
56.681708757214118
31
0
0
LINE
5
19C
100
AcDbEntity
8
CUTOUTS
100
AcDbLine
10
-21.243245837557936
20
21.13170875675646
30
0
11
-22.243245839057764
21
20.131708757356499
31
0
0
LINE
5
19D
100
AcDbEntity
8
CUTOUTS
100
AcDbLine
10
-22.243245839057764
20
20.131708757356499
30
0
11
-34.843245838757895
21
20.131708757356428
31
0
0
LINE
5
19E
100
AcDbEntity
8
CUTOUTS
100
AcDbLine
10
-34.843245838757895
20
20.131708757356428
30
0
11
-35.843245837957909
21
21.131708756556442
31
0
0
LINE
5
19F
100
AcDbEntity
8
CUTOUTS
100
AcDbLine
10
-35.843245837957909
20
21.131708756556442
30
0
11
-35.843245837957909
21
33.131708757256497
31
0
0
LINE
5
1A0
100
AcDbEntity
8
CUTOUTS
100
AcDbLine
10
-35.843245837957909
20
33.131708757256497
30
0
11
-34.843245837507908
21
34.131708757706498
31
0
0
LINE
5
1A1
100
AcDbEntity
8
CUTOUTS
100
AcDbLine
10
-34.843245837507908
20
34.131708757706498
30
0
11
-25.302773778270762
21
34.131708757706427
31
0
0
ARC
5
1A2
100
AcDbEntity
8
CUTOUTS
100
AcDbCircle
10
-22.445327365824994
20
32.929627229689267
30
0
40
3.0999999999999162
210
-0
220
0
230
1
100
AcDbArc
50
-67.184296448685117
51
157.18429645369562
0
LINE
5
1A3
100
AcDbEntity
8
CUTOUTS
100
AcDbLine
10
-21.243245837557936
20
30.072180817348588
30
0
11
-21.243245837557936
21
21.13170875675646
31
0
0
LINE
5
1A4
100
AcDbEntity
8
CUTOUTS
100
AcDbLine
10
-22.193245837673672
20
-56.118291243035934
30
0
11
-34.893245837373712
21
-56.118291243035934
31
0
0
LINE
5
1A5
100
AcDbEntity
8
CUTOUTS
100
AcDbLine
10
-34.893245837373712
20
-56.118291243035934
30
0
11
-35.893245836573726
21
-55.11829124383592
31
0
0
LINE
5
1A6
100
AcDbEntity
8
CUTOUTS
100
AcDbLine
10
-35.893245836573726
20
-55.11829124383592
30
0
11
-35.893245836573726
21
-43.01829124313592
31
0
0
LINE
5
1A7
100
AcDbEntity
8
CUTOUTS
100
AcDbLine
10
-35.893245836573726
20
-43.01829124313592
30
0
11
-34.893245836123725
21
-42.018291242685919
31
0
0
LINE
5
1A8
100
AcDbEntity
8
CUTOUTS
100
AcDbLine
10
-34.893245836123725
20
-42.018291242685919
30
0
11
-22.193245836423685
21
-42.018291242685919
31
0
0
LINE
5
1A9
100
AcDbEntity
8
CUTOUTS
100
AcDbLine
10
-22.193245836423685
20
-42.018291242685919
30
0
11
-21.193245836173773
21
-43.018291242935938
31
0
0
LINE
5
1AA
100
AcDbEntity
8
CUTOUTS
100
AcDbLine
10
-21.193245836173773
20
-43.018291242935938
30
0
11
-21.193245836173773
21
-55.118291243635973
31
0
0
LINE
5
1AB
100
AcDbEntity
8
CUTOUTS
100
AcDbLine
10
-21.193245836173773
20
-55.118291243635973
30
0
11
-22.193245837673672
21
-56.118291243035934
31
0
0
LINE
5
1AC
100
AcDbEntity
8
CUTOUTS
100
AcDbLine
10
-16.843245837823702
20
-55.11829124383592
30
0
11
-16.843245837823702
21
-43.01829124313592
31
0
0
LINE
5
1AD
100
AcDbEntity
8
CUTOUTS
100
AcDbLine
10
-16.843245837823702
20
-43.01829124313592
30
0
11
-15.843245837373701
21
-42.018291242685919
31
0
0
LINE
5
1AE
100
AcDbEntity
8
CUTOUTS
100
AcDbLine
10
-15.843245837373701
20
-42.018291242685919
30
0
11
-3.1432458376737316
21
-42.018291242685919
31
0
0
LINE
5
1AF
100
AcDbEntity
8
CUTOUTS
100
AcDbLine
10
-3.1432458376737316
20
-42.018291242685919
30
0
11
-2.1432458374236774
21
-43.018291242935938
31
0
0
LINE
5
1B0
100
AcDbEntity
8
CUTOUTS
100
AcDbLine
10
-2.1432458374236774
20
-43.018291242935938
30
0
11
-2.1432458374236774
21
-55.118291243635973
31
0
0
LINE
5
1B1
100
AcDbEntity
8
CUTOUTS
100
AcDbLine
10
-2.1432458374236774
20
-55.118291243635973
30
0
11
-3.1432458389237183
21
-56.118291243035934
31
0
0
LINE
5
1B2
100
AcDbEntity
8
CUTOUTS
100
AcDbLine
10
-3.1432458389237183
20
-56.118291243035934
30
0
11
-15.843245838623758
21
-56.118291243035934
31
0
0
LINE
5
1B3
100
AcDbEntity
8
CUTOUTS
100
AcDbLine
10
-15.843245838623758
20
-56.118291243035934
30
0
11
-16.843245837823702
21
-55.11829124383592
31
0
0
LINE
5
1B4
100
AcDbEntity
8
CUTOUTS
100
AcDbLine
10
21.256754162176321
20
2.0317087561641145
30
0
11
21.256754162176321
21
14.131708756864079
31
0
0
LINE
5
1B5
100
AcDbEntity
8
CUTOUTS
100
AcDbLine
10
21.256754162176321
20
14.131708756864079
30
0
11
22.256754162626251
21
15.13170875731408
31
0
0
LINE
5
1B6
100
AcDbEntity
8
CUTOUTS
100
AcDbLine
10
22.256754162626251
20
15.13170875731408
30
0
11
34.956754162326291
21
15.13170875731408
31
0
0
LINE
5
1B7
100
AcDbEntity
8
CUTOUTS
100
AcDbLine
10
34.956754162326291
20
15.13170875731408
30
0
11
35.956754162576345
21
14.131708757064096
31
0
0
LINE
5
1B8
100
AcDbEntity
8
CUTOUTS
100
AcDbLine
10
35.956754162576345
20
14.131708757064096
30
0
11
35.956754162576345
21
2.0317087563640612
31
0
0
LINE
5
1B9
100
AcDbEntity
8
CUTOUTS
100
AcDbLine
10
35.956754162576345
20
2.0317087563640612
30
0
11
34.956754161076518
21
1.0317087569641004
31
0
0
LINE
5
1BA
100
AcDbEntity
8
CUTOUTS
100
AcDbLine
10
34.956754161076518
20
1.0317087569641004
30
0
11
22.256754161376264
21
1.0317087569641004
31
0
0
LINE
5
1BB
100
AcDbEntity
8
CUTOUTS
100
AcDbLine
10
22.256754161376264
20
1.0317087569641004
30
0
11
21.256754162176321
21
2.0317087561641145
31
0
0
LINE
5
1BC
100
AcDbEntity
8
CUTOUTS
100
AcDbLine
10
16.906754162576334
20
-43.018291242935938
30
0
11
16.906754162576334
21
-55.118291243635973
31
0
0
LINE
5
1BD
100
AcDbEntity
8
CUTOUTS
100
AcDbLine
10
16.906754162576334
20
-55.118291243635973
30
0
11
15.906754161076506
21
-56.118291243035934
31
0
0
LINE
5
1BE
100
AcDbEntity
8
CUTOUTS
100
AcDbLine
10
15.906754161076506
20
-56.118291243035934
30
0
11
3.2067541613762529
21
-56.118291243035934
31
0
0
LINE
5
1BF
100
AcDbEntity
8
CUTOUTS
100
AcDbLine
10
3.2067541613762529
20
-56.118291243035934
30
0
11
2.2067541621763098
21
-55.11829124383592
31
0
0
LINE
5
1C0
100
AcDbEntity
8
CUTOUTS
100
AcDbLine
10
2.2067541621763098
20
-55.11829124383592
30
0
11
2.2067541621763098
21
-43.018291243135955
31
0
0
LINE
5
1C1
100
AcDbEntity
8
CUTOUTS
100
AcDbLine
10
2.2067541621763098
20
-43.018291243135955
30
0
11
3.2067541626262397
21
-42.018291242685955
31
0
0
LINE
5
1C2
100
AcDbEntity
8
CUTOUTS
100
AcDbLine
10
3.2067541626262397
20
-42.018291242685955
30
0
11
15.90675416232628
21
-42.018291242685955
31
0
0
LINE
5
1C3
100
AcDbEntity
8
CUTOUTS
100
AcDbLine
10
15.90675416232628
20
-42.018291242685955
30
0
11
16.906754162576334
21
-43.018291242935938
31
0
0
LINE
5
1C4
100
AcDbEntity
8
CUTOUTS
100
AcDbLine
10
34.956754162326291
20
-3.9182912426858962
30
0
11
35.956754162576345
21
-4.9182912429359149
31
0
0
LINE
5
1C5
100
AcDbEntity
8
CUTOUTS
100
AcDbLine
10
35.956754162576345
20
-4.9182912429359149
30
0
11
35.956754162576345
21
-17.01829124363595
31
0
0
LINE
5
1C6
100
AcDbEntity
8
CUTOUTS
100
AcDbLine
10
35.956754162576345
20
-17.01829124363595
30
0
11
34.956754161076518
21
-18.018291243035911
31
0
0
LINE
5
1C7
100
AcDbEntity
8
CUTOUTS
100
AcDbLine
10
34.956754161076518
20
-18.018291243035911
30
0
11
22.256754161376264
21
-18.018291243035911
31
0
0
LINE
5
1C8
100
AcDbEntity
8
CUTOUTS
100
AcDbLine
10
22.256754161376264
20
-18.018291243035911
30
0
11
21.256754162176321
21
-17.018291243835897
31
0
0
LINE
5
1C9
100
AcDbEntity
8
CUTOUTS
100
AcDbLine
10
21.256754162176321
20
-17.018291243835897
30
0
11
21.256754162176321
21
-4.9182912431358972
31
0
0
LINE
5
1CA
100
AcDbEntity
8
CUTOUTS
100
AcDbLine
10
21.256754162176321
20
-4.9182912431358972
30
0
11
22.256754162626251
21
-3.9182912426858962
31
0
0
LINE
5
1CB
100
AcDbEntity
8
CUTOUTS
100
AcDbLine
10
22.256754162626251
20
-3.9182912426858962
30
0
11
34.956754162326291
21
-3.9182912426858962
31
0
0
LINE
5
1CC
100
AcDbEntity
8
PERIMETER
100
AcDbLine
10
43.406754163691943
20
64.131541542867552
30
0
11
-28.605613950476041
21
64.131541542867552
31
0
0
LINE
5
1CD
100
AcDbEntity
8
PERIMETER
100
AcDbLine
10
-28.605613950476041
20
64.131541542867552
30
0
11
-28.637288280341266
21
61.131708758056469
31
0
0
LINE
5
1CE
100
AcDbEntity
8
PERIMETER
100
AcDbLine
10
-28.637288280341266
20
61.131708758056469
30
0
11
-43.343245836707922
21
61.13170875805654
31
0
0
LINE
5
1CF
100
AcDbEntity
8
PERIMETER
100
AcDbLine
10
-43.343245836707922
20
61.13170875805654
30
0
11
-43.343245836707922
21
29.131708756906498
31
0
0
LINE
5
1D0
100
AcDbEntity
8
PERIMETER
100
AcDbLine
10
-43.343245836707922
20
29.131708756906498
30
0
11
-41.043245836707882
21
29.131708756906498
31
0
0
ARC
5
1D1
100
AcDbEntity
8
PERIMETER
100
AcDbCircle
10
-41.043245836707882
20
27.13170875690647
30
0
40
2.0000000000000284
210
0
220
0
230
1
100
AcDbArc
50
-90
51
90
0
LINE
5
1D2
100
AcDbEntity
8
PERIMETER
100
AcDbLine
10
-41.043245836707882
20
25.131708756906441
30
0
11
-43.343245836708064
21
25.131708756906512
31
0
0
LINE
5
1D3
100
AcDbEntity
8
PERIMETER
100
AcDbLine
10
-43.343245836708064
20
25.131708756906512
30
0
11
-43.343245836707922
21
10.050712224439842
31
0
0
LINE
5
1D4
100
AcDbEntity
8
PERIMETER
100
AcDbLine
10
-43.343245836707922
20
10.050712224439842
30
0
11
-42.043726344664236
21
10.081708756906487
31
0
0
ARC
5
1D5
100
AcDbEntity
8
PERIMETER
100
AcDbCircle
10
-42.043726344664236
20
8.0817087569064583
30
0
40
2.0000000000000284
210
0
220
0
230
1
100
AcDbArc
50
-90
51
90
0
LINE
5
1D6
100
AcDbEntity
8
PERIMETER
100
AcDbLine
10
-42.043726344664236
20
6.0817087569064299
30
0
11
-43.343245836708064
21
6.0817087569065009
31
0
0
LINE
5
1D7
100
AcDbEntity
8
PERIMETER
100
AcDbLine
10
-43.343245836708064
20
6.0817087569065009
30
0
11
-43.343245836708064
21
-1.0682912419435908
31
0
0
LINE
5
1D8
100
AcDbEntity
8
PERIMETER
100
AcDbLine
10
-43.343245836708064
20
-1.0682912419435908
30
0
11
-41.343245836707894
21
-1.0682912419435908
31
0
0
ARC
5
1D9
100
AcDbEntity
8
PERIMETER
100
AcDbCircle
10
-41.343245836707965
20
-3.0682912419436548
30
0
40
2.0000000000000995
210
0
220
-0
230
1
100
AcDbArc
50
0
51
89.999999999997954
0
LINE
5
1DA
100
AcDbEntity
8
PERIMETER
100
AcDbLine
10
-39.343245836707865
20
-3.0682912419436192
30
0
11
-39.343245836707936
21
-4.7682912419436363
31
0
0
ARC
5
1DB
100
AcDbEntity
8
PERIMETER
100
AcDbCircle
10
-41.343245836707894
20
-4.7682912419437073
30
0
40
1.9999999999999218
210
0
220
0
230
1
100
AcDbArc
50
-90
51
0
0
LINE
5
1DC
100
AcDbEntity
8
PERIMETER
100
AcDbLine
10
-41.343245836707894
20
-6.7682912419436292
30
0
11
-43.343245836708064
21
-6.7682912419436292
31
0
0
LINE
5
1DD
100
AcDbEntity
8
PERIMETER
100
AcDbLine
10
-43.343245836708064
20
-6.7682912419436292
30
0
11
-43.406754163692298
21
-47.068291242893601
31
0
0
LINE
5
1DE
100
AcDbEntity
8
PERIMETER
100
AcDbLine
10
-43.406754163692298
20
-47.068291242893601
30
0
11
-41.106754163692401
21
-47.068291242893601
31
0
0
ARC
5
1DF
100
AcDbEntity
8
PERIMETER
100
AcDbCircle
10
-41.106754163692329
20
-49.068291242893594
30
0
40
1.9999999999999929
210
0
220
0
230
1
100
AcDbArc
50
-90.000000000002032
51
89.999999999997954
0
LINE
5
1E0
100
AcDbEntity
8
PERIMETER
100
AcDbLine
10
-41.106754163692401
20
-51.068291242893586
30
0
11
-43.406754163692298
21
-51.068291242893586
31
0
0
LINE
5
1E1
100
AcDbEntity
8
PERIMETER
100
AcDbLine
10
-43.406754163692298
20
-51.068291242893586
30
0
11
-43.343245836707709
21
-60.068291243235699
31
0
0
LINE
5
1E2
100
AcDbEntity
8
PERIMETER
100
AcDbLine
10
-43.343245836707709
20
-60.068291243235699
30
0
11
-22.018245836998815
21
-60.083722809911642
31
0
0
LINE
5
1E3
100
AcDbEntity
8
PERIMETER
100
AcDbLine
10
-22.018245836998815
20
-60.083722809911642
30
0
11
-22.018245836998744
21
-64.083722809911805
31
0
0
LINE
5
1E4
100
AcDbEntity
8
PERIMETER
100
AcDbLine
10
-22.018245836998744
20
-64.083722809911805
30
0
11
-16.01824583699873
21
-64.083722809911805
31
0
0
LINE
5
1E5
100
AcDbEntity
8
PERIMETER
100
AcDbLine
10
-16.01824583699873
20
-64.083722809911805
30
0
11
-16.01824583699873
21
-60.083722809911642
31
0
0
LINE
5
1E6
100
AcDbEntity
8
PERIMETER
100
AcDbLine
10
-16.01824583699873
20
-60.083722809911642
30
0
11
16.256754162063061
21
-60.131541542867382
31
0
0
LINE
5
1E7
100
AcDbEntity
8
PERIMETER
100
AcDbLine
10
16.256754162063061
20
-60.131541542867382
30
0
11
16.256754162063061
21
-64.131541542867552
31
0
0
LINE
5
1E8
100
AcDbEntity
8
PERIMETER
100
AcDbLine
10
16.256754162063061
20
-64.131541542867552
30
0
11
22.256754162063075
21
-64.131541542867552
31
0
0
LINE
5
1E9
100
AcDbEntity
8
PERIMETER
100
AcDbLine
10
22.256754162063075
20
-64.131541542867552
30
0
11
22.256754162063075
21
-60.131541542867382
31
0
0
LINE
5
1EA
100
AcDbEntity
8
PERIMETER
100
AcDbLine
10
22.256754162063075
20
-60.131541542867382
30
0
11
43.406754163692156
21
-60.068291243235699
31
0
0
LINE
5
1EB
100
AcDbEntity
8
PERIMETER
100
AcDbLine
10
43.406754163692156
20
-60.068291243235699
30
0
11
43.406754163692156
21
-51.068291242893586
31
0
0
LINE
5
1EC
100
AcDbEntity
8
PERIMETER
100
AcDbLine
10
43.406754163692156
20
-51.068291242893586
30
0
11
41.106754163691974
21
-51.068291242893586
31
0
0
ARC
5
1ED
100
AcDbEntity
8
PERIMETER
100
AcDbCircle
10
41.106754163691903
20
-49.068291242893594
30
0
40
1.9999999999999929
210
0
220
-0
230
1
100
AcDbArc
50
89.999999999997954
51
269.99999999999795
0
LINE
5
1EE
100
AcDbEntity
8
PERIMETER
100
AcDbLine
10
41.106754163691974
20
-47.068291242893601
30
0
11
43.406754163691943
21
-47.068291242893601
31
0
0
LINE
5
1EF
100
AcDbEntity
8
PERIMETER
100
AcDbLine
10
43.406754163691943
20
-47.068291242893601
30
0
11
43.406754163692156
21
-6.7682912419435937
31
0
0
LINE
5
1F0
100
AcDbEntity
8
PERIMETER
100
AcDbLine
10
43.406754163692156
20
-6.7682912419435937
30
0
11
41.406754163692128
21
-6.7682912419435937
31
0
0
ARC
5
1F1
100
AcDbEntity
8
PERIMETER
100
AcDbCircle
10
41.406754163692128
20
-4.7682912419436008
30
0
40
2.0000000000000284
210
0
220
0
230
1
100
AcDbArc
50
180
51
270
0
LINE
5
1F2
100
AcDbEntity
8
PERIMETER
100
AcDbLine
10
39.406754163692099
20
-4.7682912419435652
30
0
11
39.406754163692099
21
-3.0682912419435482
31
0
0
ARC
5
1F3
100
AcDbEntity
8
PERIMETER
100
AcDbCircle
10
41.406754163692057
20
-3.0682912419435482
30
0
40
1.9999999999999929
210
0
220
-0
230
1
100
AcDbArc
50
89.999999999997954
51
180
0
LINE
5
1F4
100
AcDbEntity
8
PERIMETER
100
AcDbLine
10
41.406754163692128
20
-1.0682912419435553
30
0
11
43.406754163692298
21
-1.0682912419435198
31
0
0
LINE
5
1F5
100
AcDbEntity
8
PERIMETER
100
AcDbLine
10
43.406754163692298
20
-1.0682912419435198
30
0
11
43.406754163692298
21
6.0817087569065009
31
0
0
LINE
5
1F6
100
AcDbEntity
8
PERIMETER
100
AcDbLine
10
43.406754163692298
20
6.0817087569065009
30
0
11
42.106757994840933
21
6.0817087569064299
31
0
0
ARC
5
1F7
100
AcDbEntity
8
PERIMETER
100
AcDbCircle
10
42.106757994840933
20
8.0817087569064583
30
0
40
2.0000000000000284
210
0
220
-0
230
1
100
AcDbArc
50
90
51
270
0
LINE
5
1F8
100
AcDbEntity
8
PERIMETER
100
AcDbLine
10
42.106757994840933
20
10.081708756906487
30
0
11
43.406754163692156
21
10.081708756906487
31
0
0
LINE
5
1F9
100
AcDbEntity
8
PERIMETER
100
AcDbLine
10
43.406754163692156
20
10.081708756906487
30
0
11
43.406754163692156
21
25.131708756906512
31
0
0
LINE
5
1FA
100
AcDbEntity
8
PERIMETER
100
AcDbLine
10
43.406754163692156
20
25.131708756906512
30
0
11
41.106754163691974
21
25.131708756906441
31
0
0
ARC
5
1FB
100
AcDbEntity
8
PERIMETER
100
AcDbCircle
10
41.106754163691974
20
27.13170875690647
30
0
40
2.0000000000000284
210
0
220
-0
230
1
100
AcDbArc
50
90
51
270
0
LINE
5
1FC
100
AcDbEntity
8
PERIMETER
100
AcDbLine
10
41.106754163691974
20
29.131708756906498
30
0
11
43.406754163692298
21
29.131708756906498
31
0
0
LINE
5
1FD
100
AcDbEntity
8
PERIMETER
100
AcDbLine
10
43.406754163692298
20
29.131708756906498
30
0
11
43.406754163691943
21
64.131541542867552
31
0
0
ENDSEC
0
SECTION
2
OBJECTS
0
DICTIONARY
5
C
100
AcDbDictionary
3
ACAD_GROUP
350
D
3
ACAD_MLINESTYLE
350
17
0
DICTIONARY
5
D
100
AcDbDictionary
0
DICTIONARY
5
1A
330
C
100
AcDbDictionary
0
DICTIONARY
5
17
100
AcDbDictionary
0
ENDSEC
0
EOF
