0
SECTION
2
HEADER
9
$INSUNITS
70
4
9
$ACADVER
1
AC1014
9
$HANDSEED
5
FFFF
0
ENDSEC
0
SECTION
2
TABLES
0
TABLE
2
VPORT
5
8
100
AcDbSymbolTable
0
ENDTAB
0
TABLE
2
LTYPE
5
5
100
AcDbSymbolTable
70
2
0
LTYPE
5
14
100
AcDbSymbolTableRecord
100
AcDbLinetypeTableRecord
2
BYBLOCK
70
0
0
LTYPE
5
15
100
AcDbSymbolTableRecord
100
AcDbLinetypeTableRecord
2
BYLAYER
70
0
0
ENDTAB
0
TABLE
2
LAYER
5
2
100
AcDbSymbolTable
70
3
0
LAYER
5
50
100
AcDbSymbolTableRecord
100
AcDbLayerTableRecord
2
0
70
0
6
CONTINUOUS
0
LAYER
5
51
100
AcDbSymbolTableRecord
100
AcDbLayerTableRecord
2
CUTOUTS
70
0
62
1
6
CONTINUOUS
0
LAYER
5
52
100
AcDbSymbolTableRecord
100
AcDbLayerTableRecord
2
PERIMETER
70
0
62
5
6
CONTINUOUS
0
ENDTAB
0
TABLE
2
STYLE
5
3
100
AcDbSymbolTable
70
1
0
STYLE
5
11
100
AcDbSymbolTableRecord
100
AcDbTextStyleTableRecord
2
STANDARD
70
0
0
ENDTAB
0
TABLE
2
VIEW
5
6
100
AcDbSymbolTable
0
ENDTAB
0
TABLE
2
UCS
5
7
100
AcDbSymbolTable
0
ENDTAB
0
TABLE
2
APPID
5
9
100
AcDbSymbolTable
70
1
0
APPID
5
12
100
AcDbSymbolTableRecord
100
AcDbRegAppTableRecord
2
ACAD
70
0
0
ENDTAB
0
TABLE
2
DIMSTYLE
5
A
100
AcDbSymbolTable
0
ENDTAB
0
TABLE
2
BLOCK_RECORD
5
1
100
AcDbSymbolTable
70
2
0
BLOCK_RECORD
5
1F
100
AcDbSymbolTableRecord
100
AcDbBlockTableRecord
2
*MODEL_SPACE
0
BLOCK_RECORD
5
1B
100
AcDbSymbolTableRecord
100
AcDbBlockTableRecord
2
*PAPER_SPACE
0
ENDTAB
0
ENDSEC
0
SECTION
2
BLOCKS
0
BLOCK
5
20
100
AcDbEntity
100
AcDbBlockBegin
2
*MODEL_SPACE
0
ENDBLK
5
21
100
AcDbEntity
100
AcDbBlockEnd
0
BLOCK
5
1C
100
AcDbEntity
100
AcDbBlockBegin
2
*PAPER_SPACE
0
ENDBLK
5
1D
100
AcDbEntity
100
AcDbBlockEnd
0
ENDSEC
0
SECTION
2
ENTITIES
0
CIRCLE
5
100
100
AcDbEntity
8
CUTOUTS
100
AcDbCircle
10
35.906754162449914
20
-17.743291242468331
30
0
40
0.99999999999994316
210
0
220
0
230
1
0
CIRCLE
5
101
100
AcDbEntity
8
CUTOUTS
100
AcDbCircle
10
22.406754164229454
20
38.881708757706548
30
0
40
0.99999999999994316
210
0
220
0
230
1
0
CIRCLE
5
102
100
AcDbEntity
8
CUTOUTS
100
AcDbCircle
10
35.406754164229568
20
38.881708757706548
30
0
40
0.99999999999994316
210
0
220
0
230
1
0
CIRCLE
5
103
100
AcDbEntity
8
CUTOUTS
100
AcDbCircle
10
-22.343245836708121
20
38.881708757706548
30
0
40
0.99999999999994316
210
0
220
0
230
1
0
CIRCLE
5
104
100
AcDbEntity
8
CUTOUTS
100
AcDbCircle
10
-35.343245836708093
20
38.881708757706548
30
0
40
1.0000000000000142
210
0
220
0
230
1
0
CIRCLE
5
105
100
AcDbEntity
8
CUTOUTS
100
AcDbCircle
10
0.031754163760666643
20
8.0817087569066359
30
0
40
0.99999999999994316
210
0
220
0
230
1
0
CIRCLE
5
106
100
AcDbEntity
8
CUTOUTS
100
AcDbCircle
10
19.256754162063174
20
-62.131541542867339
30
0
40
0.99999999999994316
210
0
220
0
230
1
0
CIRCLE
5
107
100
AcDbEntity
8
CUTOUTS
100
AcDbCircle
10
-19.018245836998773
20
-62.083722809911634
30
0
40
0.99999999999994316
210
0
220
0
230
1
0
CIRCLE
5
108
100
AcDbEntity
8
CUTOUTS
100
AcDbCircle
10
0.031754163760666643
20
-30.018291242993485
30
0
40
0.99999999999994316
210
0
220
0
230
1
0
CIRCLE
5
109
100
AcDbEntity
8
CUTOUTS
100
AcDbCircle
10
-19.01824583650793
20
50.631708757356506
30
0
40
0.99999999999994316
210
0
220
0
230
1
0
CIRCLE
5
10A
100
AcDbEntity
8
CUTOUTS
100
AcDbCircle
10
19.081754163492093
20
50.631708757356506
30
0
40
0.99999999999994316
210
0
220
0
230
1
0
CIRCLE
5
10B
100
AcDbEntity
8
CUTOUTS
100
AcDbCircle
10
19.081754163760678
20
-10.968291242893429
30
0
40
0.99999999999994316
210
0
220
0
230
1
0
CIRCLE
5
10C
100
AcDbEntity
8
CUTOUTS
100
AcDbCircle
10
-19.018245837757917
20
-10.968291242893429
30
0
40
0.99999999999994316
210
0
220
0
230
1
0
LINE
5
10D
100
AcDbEntity
8
CUTOUTS
100
AcDbLine
10
21.606754161550015
20
-17.443291242468462
30
0
11
21.606754161550015
21
14.556708757531567
31
0
0
LINE
5
10E
100
AcDbEntity
8
CUTOUTS
100
AcDbLine
10
21.606754161550015
20
14.556708757531567
30
0
11
33.606754162449874
21
14.556708757531567
31
0
0
LINE
5
10F
100
AcDbEntity
8
CUTOUTS
100
AcDbLine
10
33.606754162449874
20
14.556708757531567
30
0
11
35.606754162449903
21
11.556708757531595
31
0
0
LINE
5
110
100
AcDbEntity
8
CUTOUTS
100
AcDbLine
10
35.606754162449903
20
11.556708757531595
30
0
11
35.606754162450045
21
-14.44329124246849
31
0
0
LINE
5
111
100
AcDbEntity
8
CUTOUTS
100
AcDbLine
10
35.606754162450045
20
-14.44329124246849
30
0
11
33.606754162450017
21
-17.443291242468462
31
0
0
LINE
5
112
100
AcDbEntity
8
CUTOUTS
100
AcDbLine
10
33.606754162450017
20
-17.443291242468462
30
0
11
21.606754161550015
21
-17.443291242468462
31
0
0
LINE
5
113
100
AcDbEntity
8
CUTOUTS
100
AcDbLine
10
34.956754162326291
20
57.681708757664154
30
0
11
35.956754162576345
21
56.6817087574141
31
0
0
LINE
5
114
100
AcDbEntity
8
CUTOUTS
100
AcDbLine
10
35.956754162576345
20
56.6817087574141
30
0
11
35.956754162576345
21
44.581708756714136
31
0
0
LINE
5
115
100
AcDbEntity
8
CUTOUTS
100
AcDbLine
10
35.956754162576345
20
44.581708756714136
30
0
11
34.956754161076447
21
43.581708757314175
31
0
0
LINE
5
116
100
AcDbEntity
8
CUTOUTS
100
AcDbLine
10
34.956754161076447
20
43.581708757314175
30
0
11
22.256754161376335
21
43.581708757314175
31
0
0
LINE
5
117
100
AcDbEntity
8
CUTOUTS
100
AcDbLine
10
22.256754161376335
20
43.581708757314175
30
0
11
21.256754162176321
21
44.581708756514189
31
0
0
LINE
5
118
100
AcDbEntity
8
CUTOUTS
100
AcDbLine
10
21.256754162176321
20
44.581708756514189
30
0
11
21.256754162176321
21
56.681708757214153
31
0
0
LINE
5
119
100
AcDbEntity
8
CUTOUTS
100
AcDbLine
10
21.256754162176321
20
56.681708757214153
30
0
11
22.256754162626322
21
57.681708757664296
31
0
0
LINE
5
11A
100
AcDbEntity
8
CUTOUTS
100
AcDbLine
10
22.256754162626322
20
57.681708757664296
30
0
11
34.956754162326291
21
57.681708757664154
31
0
0
LINE
5
11B
100
AcDbEntity
8
CUTOUTS
100
AcDbLine
10
2.2067541621764519
20
56.681708757214295
30
0
11
3.2067541626263107
21
57.681708757664296
31
0
0
LINE
5
11C
100
AcDbEntity
8
CUTOUTS
100
AcDbLine
10
3.2067541626263107
20
57.681708757664296
30
0
11
15.90675416232628
21
57.681708757664296
31
0
0
LINE
5
11D
100
AcDbEntity
8
CUTOUTS
100
AcDbLine
10
15.90675416232628
20
57.681708757664296
30
0
11
16.906754162576334
21
56.6817087574141
31
0
0
LINE
5
11E
100
AcDbEntity
8
CUTOUTS
100
AcDbLine
10
16.906754162576334
20
56.6817087574141
30
0
11
16.906754162576334
21
44.581708756714136
31
0
0
LINE
5
11F
100
AcDbEntity
8
CUTOUTS
100
AcDbLine
10
16.906754162576334
20
44.581708756714136
30
0
11
15.906754161076577
21
43.581708757314175
31
0
0
LINE
5
120
100
AcDbEntity
8
CUTOUTS
100
AcDbLine
10
15.906754161076577
20
43.581708757314175
30
0
11
3.206754161376324
21
43.581708757314175
31
0
0
LINE
5
121
100
AcDbEntity
8
CUTOUTS
100
AcDbLine
10
3.206754161376324
20
43.581708757314175
30
0
11
2.2067541621763098
21
44.581708756514189
31
0
0
LINE
5
122
100
AcDbEntity
8
CUTOUTS
100
AcDbLine
10
2.2067541621763098
20
44.581708756514189
30
0
11
2.2067541621764519
21
56.681708757214295
31
0
0
LINE
5
123
100
AcDbEntity
8
CUTOUTS
100
AcDbLine
10
-2.1432458374236774
20
56.6817087574141
30
0
11
-2.1432458374236774
21
44.581708756714136
31
0
0
LINE
5
124
100
AcDbEntity
8
CUTOUTS
100
AcDbLine
10
-2.1432458374236774
20
44.581708756714136
30
0
11
-3.1432458389237183
21
43.581708757314175
31
0
0
LINE
5
125
100
AcDbEntity
8
CUTOUTS
100
AcDbLine
10
-3.1432458389237183
20
43.581708757314175
30
0
11
-15.843245838623687
21
43.581708757314175
31
0
0
LINE
5
126
100
AcDbEntity
8
CUTOUTS
100
AcDbLine
10
-15.843245838623687
20
43.581708757314175
30
0
11
-16.843245837823702
21
44.581708756514189
31
0
0
LINE
5
127
100
AcDbEntity
8
CUTOUTS
100
AcDbLine
10
-16.843245837823702
20
44.581708756514189
30
0
11
-16.843245837823702
21
56.681708757214153
31
0
0
LINE
5
128
100
AcDbEntity
8
CUTOUTS
100
AcDbLine
10
-16.843245837823702
20
56.681708757214153
30
0
11
-15.843245837373701
21
57.681708757664296
31
0
0
LINE
5
129
100
AcDbEntity
8
CUTOUTS
100
AcDbLine
10
-15.843245837373701
20
57.681708757664296
30
0
11
-3.1432458376737316
21
57.681708757664154
31
0
0
LINE
5
12A
100
AcDbEntity
8
CUTOUTS
100
AcDbLine
10
-3.1432458376737316
20
57.681708757664154
30
0
11
-2.1432458374236774
21
56.6817087574141
31
0
0
LINE
5
12B
100
AcDbEntity
8
CUTOUTS
100
AcDbLine
10
-34.893245837373712
20
43.581708757314175
30
0
11
-35.893245836573726
21
44.581708756514189
31
0
0
LINE
5
12C
100
AcDbEntity
8
CUTOUTS
100
AcDbLine
10
-35.893245836573726
20
44.581708756514189
30
0
11
-35.893245836573726
21
56.681708757214295
31
0
0
LINE
5
12D
100
AcDbEntity
8
CUTOUTS
100
AcDbLine
10
-35.893245836573726
20
56.681708757214295
30
0
11
-34.893245836123725
21
57.681708757664296
31
0
0
LINE
5
12E
100
AcDbEntity
8
CUTOUTS
100
AcDbLine
10
-34.893245836123725
20
57.681708757664296
30
0
11
-22.193245836423614
21
57.681708757664154
31
0
0
LINE
5
12F
100
AcDbEntity
8
CUTOUTS
100
AcDbLine
10
-22.193245836423614
20
57.681708757664154
30
0
11
-21.193245836173702
21
56.6817087574141
31
0
0
LINE
5
130
100
AcDbEntity
8
CUTOUTS
100
AcDbLine
10
-21.193245836173702
20
56.6817087574141
30
0
11
-21.193245836173702
21
44.581708756714136
31
0
0
LINE
5
131
100
AcDbEntity
8
CUTOUTS
100
AcDbLine
10
-21.193245836173702
20
44.581708756714136
30
0
11
-22.193245837673743
21
43.581708757314175
31
0
0
LINE
5
132
100
AcDbEntity
8
CUTOUTS
100
AcDbLine
10
-22.193245837673743
20
43.581708757314175
30
0
11
-34.893245837373712
21
43.581708757314175
31
0
0
LINE
5
133
100
AcDbEntity
8
CUTOUTS
100
AcDbLine
10
-21.243245837557936
20
30.072180817348624
30
0
11
-21.243245837558078
21
21.131708756756495
31
0
0
LINE
5
134
100
AcDbEntity
8
CUTOUTS
100
AcDbLine
10
-21.243245837558078
20
21.131708756756495
30
0
11
-22.243245839057835
21
20.131708757356535
31
0
0
LINE
5
135
100
AcDbEntity
8
CUTOUTS
100
AcDbLine
10
-22.243245839057835
20
20.131708757356535
30
0
11
-34.843245838757895
21
20.131708757356535
31
0
0
LINE
5
136
100
AcDbEntity
8
CUTOUTS
100
AcDbLine
10
-34.843245838757895
20
20.131708757356535
30
0
11
-35.843245837957909
21
21.131708756556549
31
0
0
LINE
5
137
100
AcDbEntity
8
CUTOUTS
100
AcDbLine
10
-35.843245837957909
20
21.131708756556549
30
0
11
-35.843245837957909
21
33.131708757256604
31
0
0
LINE
5
138
100
AcDbEntity
8
CUTOUTS
100
AcDbLine
10
-35.843245837957909
20
33.131708757256604
30
0
11
-34.843245837507908
21
34.131708757706605
31
0
0
LINE
5
139
100
AcDbEntity
8
CUTOUTS
100
AcDbLine
10
-34.843245837507908
20
34.131708757706605
30
0
11
-25.302773778271046
21
34.131708757706605
31
0
0
ARC
5
13A
100
AcDbEntity
8
CUTOUTS
100
AcDbCircle
10
-22.445327365824994
20
32.929627229689515
30
0
40
3.1000000000001124
210
-0
220
0
230
1
100
AcDbArc
50
-67.184296448686638
51
157.18429645369889
0
LINE
5
13B
100
AcDbEntity
8
CUTOUTS
100
AcDbLine
10
21.606754161550015
20
-23.543291237774469
30
0
11
33.606754162449874
21
-23.543291237774469
31
0
0
LINE
5
13C
100
AcDbEntity
8
CUTOUTS
100
AcDbLine
10
33.606754162449874
20
-23.543291237774469
30
0
11
35.606754162449903
21
-26.54329123777444
31
0
0
LINE
5
13D
100
AcDbEntity
8
CUTOUTS
100
AcDbLine
10
35.606754162449903
20
-26.54329123777444
30
0
11
35.606754162450045
21
-52.543291237774454
31
0
0
LINE
5
13E
100
AcDbEntity
8
CUTOUTS
100
AcDbLine
10
35.606754162450045
20
-52.543291237774454
30
0
11
33.606754162450017
21
-55.543291237774426
31
0
0
LINE
5
13F
100
AcDbEntity
8
CUTOUTS
100
AcDbLine
10
33.606754162450017
20
-55.543291237774426
30
0
11
21.606754161550015
21
-55.543291237774426
31
0
0
LINE
5
140
100
AcDbEntity
8
CUTOUTS
100
AcDbLine
10
21.606754161550015
20
-55.543291237774426
30
0
11
21.606754161550015
21
-23.543291237774469
31
0
0
LINE
5
141
100
AcDbEntity
8
CUTOUTS
100
AcDbLine
10
-2.1432458374236774
20
33.181708757064143
30
0
11
-2.1432458374236774
21
21.081708756364179
31
0
0
LINE
5
142
100
AcDbEntity
8
CUTOUTS
100
AcDbLine
10
-2.1432458374236774
20
21.081708756364179
30
0
11
-3.1432458389237183
21
20.081708756964218
31
0
0
LINE
5
143
100
AcDbEntity
8
CUTOUTS
100
AcDbLine
10
-3.1432458389237183
20
20.081708756964218
30
0
11
-15.843245838623687
21
20.081708756964218
31
0
0
LINE
5
144
100
AcDbEntity
8
CUTOUTS
100
AcDbLine
10
-15.843245838623687
20
20.081708756964218
30
0
11
-16.843245837823702
21
21.081708756164232
31
0
0
LINE
5
145
100
AcDbEntity
8
CUTOUTS
100
AcDbLine
10
-16.843245837823702
20
21.081708756164232
30
0
11
-16.843245837823702
21
33.181708756864197
31
0
0
LINE
5
146
100
AcDbEntity
8
CUTOUTS
100
AcDbLine
10
-16.843245837823702
20
33.181708756864197
30
0
11
-15.843245837373701
21
34.181708757314198
31
0
0
LINE
5
147
100
AcDbEntity
8
CUTOUTS
100
AcDbLine
10
-15.843245837373701
20
34.181708757314198
30
0
11
-3.1432458376737316
21
34.181708757314198
31
0
0
LINE
5
148
100
AcDbEntity
8
CUTOUTS
100
AcDbLine
10
-3.1432458376737316
20
34.181708757314198
30
0
11
-2.1432458374236774
21
33.181708757064143
31
0
0
LINE
5
149
100
AcDbEntity
8
CUTOUTS
100
AcDbLine
10
2.2067541621763098
20
21.081708756164232
30
0
11
2.2067541621764519
21
33.181708756864197
31
0
0
LINE
5
14A
100
AcDbEntity
8
CUTOUTS
100
AcDbLine
10
2.2067541621764519
20
33.181708756864197
30
0
11
3.2067541626263107
21
34.181708757314198
31
0
0
LINE
5
14B
100
AcDbEntity
8
CUTOUTS
100
AcDbLine
10
3.2067541626263107
20
34.181708757314198
30
0
11
15.90675416232628
21
34.181708757314198
31
0
0
LINE
5
14C
100
AcDbEntity
8
CUTOUTS
100
AcDbLine
10
15.90675416232628
20
34.181708757314198
30
0
11
16.906754162576334
21
33.181708757064143
31
0
0
LINE
5
14D
100
AcDbEntity
8
CUTOUTS
100
AcDbLine
10
16.906754162576334
20
33.181708757064143
30
0
11
16.906754162576334
21
21.081708756364179
31
0
0
LINE
5
14E
100
AcDbEntity
8
CUTOUTS
100
AcDbLine
10
16.906754162576334
20
21.081708756364179
30
0
11
15.906754161076577
21
20.081708756964218
31
0
0
LINE
5
14F
100
AcDbEntity
8
CUTOUTS
100
AcDbLine
10
15.906754161076577
20
20.081708756964218
30
0
11
3.206754161376324
21
20.081708756964218
31
0
0
LINE
5
150
100
AcDbEntity
8
CUTOUTS
100
AcDbLine
10
3.206754161376324
20
20.081708756964218
30
0
11
2.2067541621763098
21
21.081708756164232
31
0
0
LINE
5
151
100
AcDbEntity
8
CUTOUTS
100
AcDbLine
10
22.256754162626322
20
34.181708757314198
30
0
11
34.956754162326291
21
34.181708757314198
31
0
0
LINE
5
152
100
AcDbEntity
8
CUTOUTS
100
AcDbLine
10
34.956754162326291
20
34.181708757314198
30
0
11
35.956754162576345
21
33.181708757064143
31
0
0
LINE
5
153
100
AcDbEntity
8
CUTOUTS
100
AcDbLine
10
35.956754162576345
20
33.181708757064143
30
0
11
35.956754162576345
21
21.081708756364179
31
0
0
LINE
5
154
100
AcDbEntity
8
CUTOUTS
100
AcDbLine
10
35.956754162576345
20
21.081708756364179
30
0
11
34.956754161076589
21
20.081708756964218
31
0
0
LINE
5
155
100
AcDbEntity
8
CUTOUTS
100
AcDbLine
10
34.956754161076589
20
20.081708756964218
30
0
11
22.256754161376335
21
20.081708756964218
31
0
0
LINE
5
156
100
AcDbEntity
8
CUTOUTS
100
AcDbLine
10
22.256754161376335
20
20.081708756964218
30
0
11
21.256754162176321
21
21.081708756164232
31
0
0
LINE
5
157
100
AcDbEntity
8
CUTOUTS
100
AcDbLine
10
21.256754162176321
20
21.081708756164232
30
0
11
21.256754162176321
21
33.181708756864197
31
0
0
LINE
5
158
100
AcDbEntity
8
CUTOUTS
100
AcDbLine
10
21.256754162176321
20
33.181708756864197
30
0
11
22.256754162626322
21
34.181708757314198
31
0
0
LINE
5
159
100
AcDbEntity
8
CUTOUTS
100
AcDbLine
10
-22.193245837673743
20
1.0317087569642069
30
0
11
-34.893245837373712
21
1.0317087569642069
31
0
0
LINE
5
15A
100
AcDbEntity
8
CUTOUTS
100
AcDbLine
10
-34.893245837373712
20
1.0317087569642069
30
0
11
-35.893245836573726
21
2.0317087561642211
31
0
0
LINE
5
15B
100
AcDbEntity
8
CUTOUTS
100
AcDbLine
10
-35.893245836573726
20
2.0317087561642211
30
0
11
-35.893245836573726
21
14.131708756864185
31
0
0
LINE
5
15C
100
AcDbEntity
8
CUTOUTS
100
AcDbLine
10
-35.893245836573726
20
14.131708756864185
30
0
11
-34.893245836123796
21
15.131708757314186
31
0
0
LINE
5
15D
100
AcDbEntity
8
CUTOUTS
100
AcDbLine
10
-34.893245836123796
20
15.131708757314186
30
0
11
-22.193245836423756
21
15.131708757314186
31
0
0
LINE
5
15E
100
AcDbEntity
8
CUTOUTS
100
AcDbLine
10
-22.193245836423756
20
15.131708757314186
30
0
11
-21.193245836173702
21
14.131708757064132
31
0
0
LINE
5
15F
100
AcDbEntity
8
CUTOUTS
100
AcDbLine
10
-21.193245836173702
20
14.131708757064132
30
0
11
-21.193245836173844
21
2.0317087563641678
31
0
0
LINE
5
160
100
AcDbEntity
8
CUTOUTS
100
AcDbLine
10
-21.193245836173844
20
2.0317087563641678
30
0
11
-22.193245837673743
21
1.0317087569642069
31
0
0
LINE
5
161
100
AcDbEntity
8
CUTOUTS
100
AcDbLine
10
-16.843245837823702
20
14.131708756864185
30
0
11
-15.843245837373701
21
15.131708757314186
31
0
0
LINE
5
162
100
AcDbEntity
8
CUTOUTS
100
AcDbLine
10
-15.843245837373701
20
15.131708757314186
30
0
11
-3.1432458376737316
21
15.131708757314186
31
0
0
LINE
5
163
100
AcDbEntity
8
CUTOUTS
100
AcDbLine
10
-3.1432458376737316
20
15.131708757314186
30
0
11
-2.1432458374236774
21
14.131708757064132
31
0
0
LINE
5
164
100
AcDbEntity
8
CUTOUTS
100
AcDbLine
10
-2.1432458374236774
20
14.131708757064132
30
0
11
-2.1432458374236774
21
2.0317087563641678
31
0
0
LINE
5
165
100
AcDbEntity
8
CUTOUTS
100
AcDbLine
10
-2.1432458374236774
20
2.0317087563641678
30
0
11
-3.1432458389237183
21
1.0317087569642069
31
0
0
LINE
5
166
100
AcDbEntity
8
CUTOUTS
100
AcDbLine
10
-3.1432458389237183
20
1.0317087569642069
30
0
11
-15.843245838623687
21
1.0317087569642069
31
0
0
LINE
5
167
100
AcDbEntity
8
CUTOUTS
100
AcDbLine
10
-15.843245838623687
20
1.0317087569642069
30
0
11
-16.843245837823702
21
2.0317087561642211
31
0
0
LINE
5
168
100
AcDbEntity
8
CUTOUTS
100
AcDbLine
10
-16.843245837823702
20
2.0317087561642211
30
0
11
-16.843245837823702
21
14.131708756864185
31
0
0
LINE
5
169
100
AcDbEntity
8
CUTOUTS
100
AcDbLine
10
16.906754162576334
20
2.0317087563641678
30
0
11
15.906754161076577
21
1.0317087569642069
31
0
0
LINE
5
16A
100
AcDbEntity
8
CUTOUTS
100
AcDbLine
10
15.906754161076577
20
1.0317087569642069
30
0
11
3.206754161376324
21
1.0317087569642069
31
0
0
LINE
5
16B
100
AcDbEntity
8
CUTOUTS
100
AcDbLine
10
3.206754161376324
20
1.0317087569642069
30
0
11
2.2067541621763098
21
2.0317087561642211
31
0
0
LINE
5
16C
100
AcDbEntity
8
CUTOUTS
100
AcDbLine
10
2.2067541621763098
20
2.0317087561642211
30
0
11
2.2067541621764519
21
14.131708756864185
31
0
0
LINE
5
16D
100
AcDbEntity
8
CUTOUTS
100
AcDbLine
10
2.2067541621764519
20
14.131708756864185
30
0
11
3.2067541626263107
21
15.131708757314186
31
0
0
LINE
5
16E
100
AcDbEntity
8
CUTOUTS
100
AcDbLine
10
3.2067541626263107
20
15.131708757314186
30
0
11
15.90675416232628
21
15.131708757314186
31
0
0
LINE
5
16F
100
AcDbEntity
8
CUTOUTS
100
AcDbLine
10
15.90675416232628
20
15.131708757314186
30
0
11
16.906754162576334
21
14.131708757064132
31
0
0
LINE
5
170
100
AcDbEntity
8
CUTOUTS
100
AcDbLine
10
16.906754162576334
20
14.131708757064132
30
0
11
16.906754162576334
21
2.0317087563641678
31
0
0
LINE
5
171
100
AcDbEntity
8
CUTOUTS
100
AcDbLine
10
-34.893245836123725
20
-3.9182912426858252
30
0
11
-22.193245836423614
21
-3.9182912426858252
31
0
0
LINE
5
172
100
AcDbEntity
8
CUTOUTS
100
AcDbLine
10
-22.193245836423614
20
-3.9182912426858252
30
0
11
-21.193245836173702
21
-4.9182912429358794
31
0
0
LINE
5
173
100
AcDbEntity
8
CUTOUTS
100
AcDbLine
10
-21.193245836173702
20
-4.9182912429358794
30
0
11
-21.193245836173844
21
-17.018291243635844
31
0
0
LINE
5
174
100
AcDbEntity
8
CUTOUTS
100
AcDbLine
10
-21.193245836173844
20
-17.018291243635844
30
0
11
-22.193245837673743
21
-18.018291243035804
31
0
0
LINE
5
175
100
AcDbEntity
8
CUTOUTS
100
AcDbLine
10
-22.193245837673743
20
-18.018291243035804
30
0
11
-34.893245837373712
21
-18.018291243035804
31
0
0
LINE
5
176
100
AcDbEntity
8
CUTOUTS
100
AcDbLine
10
-34.893245837373712
20
-18.018291243035804
30
0
11
-35.893245836573726
21
-17.01829124383579
31
0
0
LINE
5
177
100
AcDbEntity
8
CUTOUTS
100
AcDbLine
10
-35.893245836573726
20
-17.01829124383579
30
0
11
-35.893245836573726
21
-4.9182912431358261
31
0
0
LINE
5
178
100
AcDbEntity
8
CUTOUTS
100
AcDbLine
10
-35.893245836573726
20
-4.9182912431358261
30
0
11
-34.893245836123725
21
-3.9182912426858252
31
0
0
LINE
5
179
100
AcDbEntity
8
CUTOUTS
100
AcDbLine
10
-16.843245837823702
20
-17.01829124383579
30
0
11
-16.843245837823702
21
-4.9182912431358261
31
0
0
LINE
5
17A
100
AcDbEntity
8
CUTOUTS
100
AcDbLine
10
-16.843245837823702
20
-4.9182912431358261
30
0
11
-15.843245837373701
21
-3.9182912426858252
31
0
0
LINE
5
17B
100
AcDbEntity
8
CUTOUTS
100
AcDbLine
10
-15.843245837373701
20
-3.9182912426858252
30
0
11
-3.1432458376737316
21
-3.9182912426858252
31
0
0
LINE
5
17C
100
AcDbEntity
8
CUTOUTS
100
AcDbLine
10
-3.1432458376737316
20
-3.9182912426858252
30
0
11
-2.1432458374236774
21
-4.9182912429358794
31
0
0
LINE
5
17D
100
AcDbEntity
8
CUTOUTS
100
AcDbLine
10
-2.1432458374236774
20
-4.9182912429358794
30
0
11
-2.1432458374236774
21
-17.018291243635844
31
0
0
LINE
5
17E
100
AcDbEntity
8
CUTOUTS
100
AcDbLine
10
-2.1432458374236774
20
-17.018291243635844
30
0
11
-3.1432458389237183
21
-18.018291243035804
31
0
0
LINE
5
17F
100
AcDbEntity
8
CUTOUTS
100
AcDbLine
10
-3.1432458389237183
20
-18.018291243035804
30
0
11
-15.843245838623687
21
-18.018291243035804
31
0
0
LINE
5
180
100
AcDbEntity
8
CUTOUTS
100
AcDbLine
10
-15.843245838623687
20
-18.018291243035804
30
0
11
-16.843245837823702
21
-17.01829124383579
31
0
0
LINE
5
181
100
AcDbEntity
8
CUTOUTS
100
AcDbLine
10
15.906754161076577
20
-18.018291243035804
30
0
11
3.206754161376324
21
-18.018291243035804
31
0
0
LINE
5
182
100
AcDbEntity
8
CUTOUTS
100
AcDbLine
10
3.206754161376324
20
-18.018291243035804
30
0
11
2.2067541621763098
21
-17.01829124383579
31
0
0
LINE
5
183
100
AcDbEntity
8
CUTOUTS
100
AcDbLine
10
2.2067541621763098
20
-17.01829124383579
30
0
11
2.2067541621763098
21
-4.9182912431358261
31
0
0
LINE
5
184
100
AcDbEntity
8
CUTOUTS
100
AcDbLine
10
2.2067541621763098
20
-4.9182912431358261
30
0
11
3.2067541626263107
21
-3.9182912426858252
31
0
0
LINE
5
185
100
AcDbEntity
8
CUTOUTS
100
AcDbLine
10
3.2067541626263107
20
-3.9182912426858252
30
0
11
15.90675416232628
21
-3.9182912426858252
31
0
0
LINE
5
186
100
AcDbEntity
8
CUTOUTS
100
AcDbLine
10
15.90675416232628
20
-3.9182912426858252
30
0
11
16.906754162576334
21
-4.9182912429358794
31
0
0
LINE
5
187
100
AcDbEntity
8
CUTOUTS
100
AcDbLine
10
16.906754162576334
20
-4.9182912429358794
30
0
11
16.906754162576334
21
-17.018291243635844
31
0
0
LINE
5
188
100
AcDbEntity
8
CUTOUTS
100
AcDbLine
10
16.906754162576334
20
-17.018291243635844
30
0
11
15.906754161076577
21
-18.018291243035804
31
0
0
LINE
5
189
100
AcDbEntity
8
CUTOUTS
100
AcDbLine
10
-35.893245836573726
20
-23.968291243135837
30
0
11
-34.893245836123796
21
-22.968291242685837
31
0
0
LINE
5
18A
100
AcDbEntity
8
CUTOUTS
100
AcDbLine
10
-34.893245836123796
20
-22.968291242685837
30
0
11
-22.193245836423756
21
-22.968291242685837
31
0
0
LINE
5
18B
100
AcDbEntity
8
CUTOUTS
100
AcDbLine
10
-22.193245836423756
20
-22.968291242685837
30
0
11
-21.193245836173702
21
-23.968291242935891
31
0
0
LINE
5
18C
100
AcDbEntity
8
CUTOUTS
100
AcDbLine
10
-21.193245836173702
20
-23.968291242935891
30
0
11
-21.193245836173844
21
-36.068291243635855
31
0
0
LINE
5
18D
100
AcDbEntity
8
CUTOUTS
100
AcDbLine
10
-21.193245836173844
20
-36.068291243635855
30
0
11
-22.193245837673743
21
-37.068291243035816
31
0
0
LINE
5
18E
100
AcDbEntity
8
CUTOUTS
100
AcDbLine
10
-22.193245837673743
20
-37.068291243035816
30
0
11
-34.893245837373712
21
-37.068291243035816
31
0
0
LINE
5
18F
100
AcDbEntity
8
CUTOUTS
100
AcDbLine
10
-34.893245837373712
20
-37.068291243035816
30
0
11
-35.893245836573726
21
-36.068291243835802
31
0
0
LINE
5
190
100
AcDbEntity
8
CUTOUTS
100
AcDbLine
10
-35.893245836573726
20
-36.068291243835802
30
0
11
-35.893245836573726
21
-23.968291243135837
31
0
0
LINE
5
191
100
AcDbEntity
8
CUTOUTS
100
AcDbLine
10
-3.1432458376737316
20
-22.968291242685837
30
0
11
-2.1432458374236774
21
-23.968291242935891
31
0
0
LINE
5
192
100
AcDbEntity
8
CUTOUTS
100
AcDbLine
10
-2.1432458374236774
20
-23.968291242935891
30
0
11
-2.1432458374236774
21
-36.068291243635855
31
0
0
LINE
5
193
100
AcDbEntity
8
CUTOUTS
100
AcDbLine
10
-2.1432458374236774
20
-36.068291243635855
30
0
11
-3.1432458389237183
21
-37.068291243035816
31
0
0
LINE
5
194
100
AcDbEntity
8
CUTOUTS
100
AcDbLine
10
-3.1432458389237183
20
-37.068291243035816
30
0
11
-15.843245838623687
21
-37.068291243035816
31
0
0
LINE
5
195
100
AcDbEntity
8
CUTOUTS
100
AcDbLine
10
-15.843245838623687
20
-37.068291243035816
30
0
11
-16.843245837823702
21
-36.068291243835802
31
0
0
LINE
5
196
100
AcDbEntity
8
CUTOUTS
100
AcDbLine
10
-16.843245837823702
20
-36.068291243835802
30
0
11
-16.843245837823702
21
-23.968291243135837
31
0
0
LINE
5
197
100
AcDbEntity
8
CUTOUTS
100
AcDbLine
10
-16.843245837823702
20
-23.968291243135837
30
0
11
-15.843245837373701
21
-22.968291242685837
31
0
0
LINE
5
198
100
AcDbEntity
8
CUTOUTS
100
AcDbLine
10
-15.843245837373701
20
-22.968291242685837
30
0
11
-3.1432458376737316
21
-22.968291242685837
31
0
0
LINE
5
199
100
AcDbEntity
8
CUTOUTS
100
AcDbLine
10
15.90675416232628
20
-22.968291242685837
30
0
11
16.906754162576334
21
-23.968291242935891
31
0
0
LINE
5
19A
100
AcDbEntity
8
CUTOUTS
100
AcDbLine
10
16.906754162576334
20
-23.968291242935891
30
0
11
16.906754162576334
21
-36.068291243635855
31
0
0
LINE
5
19B
100
AcDbEntity
8
CUTOUTS
100
AcDbLine
10
16.906754162576334
20
-36.068291243635855
30
0
11
15.906754161076577
21
-37.068291243035816
31
0
0
LINE
5
19C
100
AcDbEntity
8
CUTOUTS
100
AcDbLine
10
15.906754161076577
20
-37.068291243035816
30
0
11
3.206754161376324
21
-37.068291243035816
31
0
0
LINE
5
19D
100
AcDbEntity
8
CUTOUTS
100
AcDbLine
10
3.206754161376324
20
-37.068291243035816
30
0
11
2.2067541621763098
21
-36.068291243835802
31
0
0
LINE
5
19E
100
AcDbEntity
8
CUTOUTS
100
AcDbLine
10
2.2067541621763098
20
-36.068291243835802
30
0
11
2.2067541621763098
21
-23.968291243135837
31
0
0
LINE
5
19F
100
AcDbEntity
8
CUTOUTS
100
AcDbLine
10
2.2067541621763098
20
-23.968291243135837
30
0
11
3.2067541626263107
21
-22.968291242685837
31
0
0
LINE
5
1A0
100
AcDbEntity
8
CUTOUTS
100
AcDbLine
10
3.2067541626263107
20
-22.968291242685837
30
0
11
15.90675416232628
21
-22.968291242685837
31
0
0
LINE
5
1A1
100
AcDbEntity
8
CUTOUTS
100
AcDbLine
10
15.90675416232628
20
-42.018291242685848
30
0
11
16.906754162576334
21
-43.018291242935902
31
0
0
LINE
5
1A2
100
AcDbEntity
8
CUTOUTS
100
AcDbLine
10
16.906754162576334
20
-43.018291242935902
30
0
11
16.906754162576334
21
-55.118291243635866
31
0
0
LINE
5
1A3
100
AcDbEntity
8
CUTOUTS
100
AcDbLine
10
16.906754162576334
20
-55.118291243635866
30
0
11
15.906754161076577
21
-56.118291243035827
31
0
0
LINE
5
1A4
100
AcDbEntity
8
CUTOUTS
100
AcDbLine
10
15.906754161076577
20
-56.118291243035827
30
0
11
3.206754161376324
21
-56.118291243035827
31
0
0
LINE
5
1A5
100
AcDbEntity
8
CUTOUTS
100
AcDbLine
10
3.206754161376324
20
-56.118291243035827
30
0
11
2.2067541621763098
21
-55.118291243835813
31
0
0
LINE
5
1A6
100
AcDbEntity
8
CUTOUTS
100
AcDbLine
10
2.2067541621763098
20
-55.118291243835813
30
0
11
2.2067541621763098
21
-43.018291243135849
31
0
0
LINE
5
1A7
100
AcDbEntity
8
CUTOUTS
100
AcDbLine
10
2.2067541621763098
20
-43.018291243135849
30
0
11
3.2067541626263107
21
-42.018291242685848
31
0
0
LINE
5
1A8
100
AcDbEntity
8
CUTOUTS
100
AcDbLine
10
3.2067541626263107
20
-42.018291242685848
30
0
11
15.90675416232628
21
-42.018291242685848
31
0
0
LINE
5
1A9
100
AcDbEntity
8
CUTOUTS
100
AcDbLine
10
-34.893245837373712
20
-56.118291243035827
30
0
11
-35.893245836573726
21
-55.118291243835813
31
0
0
LINE
5
1AA
100
AcDbEntity
8
CUTOUTS
100
AcDbLine
10
-35.893245836573726
20
-55.118291243835813
30
0
11
-35.893245836573726
21
-43.018291243135849
31
0
0
LINE
5
1AB
100
AcDbEntity
8
CUTOUTS
100
AcDbLine
10
-35.893245836573726
20
-43.018291243135849
30
0
11
-34.893245836123796
21
-42.018291242685848
31
0
0
LINE
5
1AC
100
AcDbEntity
8
CUTOUTS
100
AcDbLine
10
-34.893245836123796
20
-42.018291242685848
30
0
11
-22.193245836423756
21
-42.018291242685848
31
0
0
LINE
5
1AD
100
AcDbEntity
8
CUTOUTS
100
AcDbLine
10
-22.193245836423756
20
-42.018291242685848
30
0
11
-21.193245836173702
21
-43.018291242935902
31
0
0
LINE
5
1AE
100
AcDbEntity
8
CUTOUTS
100
AcDbLine
10
-21.193245836173702
20
-43.018291242935902
30
0
11
-21.193245836173844
21
-55.118291243635866
31
0
0
LINE
5
1AF
100
AcDbEntity
8
CUTOUTS
100
AcDbLine
10
-21.193245836173844
20
-55.118291243635866
30
0
11
-22.193245837673743
21
-56.118291243035827
31
0
0
LINE
5
1B0
100
AcDbEntity
8
CUTOUTS
100
AcDbLine
10
-22.193245837673743
20
-56.118291243035827
30
0
11
-34.893245837373712
21
-56.118291243035827
31
0
0
LINE
5
1B1
100
AcDbEntity
8
CUTOUTS
100
AcDbLine
10
-15.843245837373701
20
-42.018291242685848
30
0
11
-3.1432458376737316
21
-42.018291242685848
31
0
0
LINE
5
1B2
100
AcDbEntity
8
CUTOUTS
100
AcDbLine
10
-3.1432458376737316
20
-42.018291242685848
30
0
11
-2.1432458374236774
21
-43.018291242935902
31
0
0
LINE
5
1B3
100
AcDbEntity
8
CUTOUTS
100
AcDbLine
10
-2.1432458374236774
20
-43.018291242935902
30
0
11
-2.1432458374236774
21
-55.118291243635866
31
0
0
LINE
5
1B4
100
AcDbEntity
8
CUTOUTS
100
AcDbLine
10
-2.1432458374236774
20
-55.118291243635866
30
0
11
-3.1432458389237183
21
-56.118291243035827
31
0
0
LINE
5
1B5
100
AcDbEntity
8
CUTOUTS
100
AcDbLine
10
-3.1432458389237183
20
-56.118291243035827
30
0
11
-15.843245838623687
21
-56.118291243035827
31
0
0
LINE
5
1B6
100
AcDbEntity
8
CUTOUTS
100
AcDbLine
10
-15.843245838623687
20
-56.118291243035827
30
0
11
-16.843245837823702
21
-55.118291243835813
31
0
0
LINE
5
1B7
100
AcDbEntity
8
CUTOUTS
100
AcDbLine
10
-16.843245837823702
20
-55.118291243835813
30
0
11
-16.843245837823702
21
-43.018291243135849
31
0
0
LINE
5
1B8
100
AcDbEntity
8
CUTOUTS
100
AcDbLine
10
-16.843245837823702
20
-43.018291243135849
30
0
11
-15.843245837373701
21
-42.018291242685848
31
0
0
ARC
5
1B9
100
AcDbEntity
8
PERIMETER
100
AcDbCircle
10
-41.343245836707823
20
-4.7682912419435297
30
0
40
2.0000000000000284
210
0
220
0
230
1
100
AcDbArc
50
-90.000000000002032
51
0
0
LINE
5
1BA
100
AcDbEntity
8
PERIMETER
100
AcDbLine
10
-41.343245836707894
20
-6.7682912419435581
30
0
11
-43.343245836708064
21
-6.7682912419435581
31
0
0
LINE
5
1BB
100
AcDbEntity
8
PERIMETER
100
AcDbLine
10
-43.343245836708064
20
-6.7682912419435581
30
0
11
-43.406754163692298
21
-47.068291242893565
31
0
0
LINE
5
1BC
100
AcDbEntity
8
PERIMETER
100
AcDbLine
10
-43.406754163692298
20
-47.068291242893565
30
0
11
-41.106754163692401
21
-47.068291242893423
31
0
0
ARC
5
1BD
100
AcDbEntity
8
PERIMETER
100
AcDbCircle
10
-41.106754163692329
20
-49.068291242893451
30
0
40
2.0000000000000284
210
0
220
0
230
1
100
AcDbArc
50
-90.000000000002032
51
89.999999999997954
0
LINE
5
1BE
100
AcDbEntity
8
PERIMETER
100
AcDbLine
10
-41.106754163692401
20
-51.06829124289348
30
0
11
-43.406754163692298
21
-51.06829124289348
31
0
0
LINE
5
1BF
100
AcDbEntity
8
PERIMETER
100
AcDbLine
10
-43.406754163692298
20
-51.06829124289348
30
0
11
-43.343245836707709
21
-60.068291243235592
31
0
0
LINE
5
1C0
100
AcDbEntity
8
PERIMETER
100
AcDbLine
10
-43.343245836707709
20
-60.068291243235592
30
0
11
-22.018245836998886
21
-60.083722809911535
31
0
0
LINE
5
1C1
100
AcDbEntity
8
PERIMETER
100
AcDbLine
10
-22.018245836998886
20
-60.083722809911535
30
0
11
-22.018245836998602
21
-64.083722809911734
31
0
0
LINE
5
1C2
100
AcDbEntity
8
PERIMETER
100
AcDbLine
10
-22.018245836998602
20
-64.083722809911734
30
0
11
-16.018245836998659
21
-64.083722809911734
31
0
0
LINE
5
1C3
100
AcDbEntity
8
PERIMETER
100
AcDbLine
10
-16.018245836998659
20
-64.083722809911734
30
0
11
-16.018245836998659
21
-60.083722809911535
31
0
0
LINE
5
1C4
100
AcDbEntity
8
PERIMETER
100
AcDbLine
10
-16.018245836998659
20
-60.083722809911535
30
0
11
16.256754162063061
21
-60.13154154286724
31
0
0
LINE
5
1C5
100
AcDbEntity
8
PERIMETER
100
AcDbLine
10
16.256754162063061
20
-60.13154154286724
30
0
11
16.256754162063061
21
-64.131541542867438
31
0
0
LINE
5
1C6
100
AcDbEntity
8
PERIMETER
100
AcDbLine
10
16.256754162063061
20
-64.131541542867438
30
0
11
22.256754162063004
21
-64.131541542867438
31
0
0
LINE
5
1C7
100
AcDbEntity
8
PERIMETER
100
AcDbLine
10
22.256754162063004
20
-64.131541542867438
30
0
11
22.256754162063004
21
-60.13154154286724
31
0
0
LINE
5
1C8
100
AcDbEntity
8
PERIMETER
100
AcDbLine
10
22.256754162063004
20
-60.13154154286724
30
0
11
43.406754163692227
21
-60.068291243235592
31
0
0
LINE
5
1C9
100
AcDbEntity
8
PERIMETER
100
AcDbLine
10
43.406754163692227
20
-60.068291243235592
30
0
11
43.406754163692227
21
-51.06829124289348
31
0
0
LINE
5
1CA
100
AcDbEntity
8
PERIMETER
100
AcDbLine
10
43.406754163692227
20
-51.06829124289348
30
0
11
41.106754163692045
21
-51.06829124289348
31
0
0
ARC
5
1CB
100
AcDbEntity
8
PERIMETER
100
AcDbCircle
10
41.106754163692045
20
-49.068291242893451
30
0
40
2.0000000000000284
210
0
220
-0
230
1
100
AcDbArc
50
90
51
270
0
LINE
5
1CC
100
AcDbEntity
8
PERIMETER
100
AcDbLine
10
41.106754163692045
20
-47.068291242893423
30
0
11
43.406754163691943
21
-47.068291242893423
31
0
0
LINE
5
1CD
100
AcDbEntity
8
PERIMETER
100
AcDbLine
10
43.406754163691943
20
-47.068291242893423
30
0
11
43.406754163692085
21
-6.768291241943416
31
0
0
LINE
5
1CE
100
AcDbEntity
8
PERIMETER
100
AcDbLine
10
43.406754163692085
20
-6.768291241943416
30
0
11
41.406754163692057
21
-6.768291241943416
31
0
0
ARC
5
1CF
100
AcDbEntity
8
PERIMETER
100
AcDbCircle
10
41.406754163692057
20
-4.7682912419435297
30
0
40
1.9999999999998863
210
0
220
0
230
1
100
AcDbArc
50
180
51
270
0
LINE
5
1D0
100
AcDbEntity
8
PERIMETER
100
AcDbLine
10
39.40675416369217
20
-4.7682912419435297
30
0
11
39.40675416369217
21
-3.0682912419435127
31
0
0
ARC
5
1D1
100
AcDbEntity
8
PERIMETER
100
AcDbCircle
10
41.406754163692057
20
-3.0682912419433706
30
0
40
1.9999999999998863
210
0
220
-0
230
1
100
AcDbArc
50
90
51
180
0
LINE
5
1D2
100
AcDbEntity
8
PERIMETER
100
AcDbLine
10
41.406754163692057
20
-1.0682912419434842
30
0
11
43.406754163692369
21
-1.0682912419434842
31
0
0
LINE
5
1D3
100
AcDbEntity
8
PERIMETER
100
AcDbLine
10
43.406754163692369
20
-1.0682912419434842
30
0
11
43.406754163692227
21
6.0817087569066075
31
0
0
LINE
5
1D4
100
AcDbEntity
8
PERIMETER
100
AcDbLine
10
43.406754163692227
20
6.0817087569066075
30
0
11
42.106757994840933
21
6.0817087569066075
31
0
0
ARC
5
1D5
100
AcDbEntity
8
PERIMETER
100
AcDbCircle
10
42.106757994841075
20
8.0817087569066359
30
0
40
2.0000000000000284
210
0
220
0
230
1
100
AcDbArc
50
90.000000000004079
51
270.00000000000409
0
LINE
5
1D6
100
AcDbEntity
8
PERIMETER
100
AcDbLine
10
42.106757994840933
20
10.081708756906664
30
0
11
43.406754163692227
21
10.081708756906664
31
0
0
LINE
5
1D7
100
AcDbEntity
8
PERIMETER
100
AcDbLine
10
43.406754163692227
20
10.081708756906664
30
0
11
43.406754163692227
21
25.131708756906619
31
0
0
LINE
5
1D8
100
AcDbEntity
8
PERIMETER
100
AcDbLine
10
43.406754163692227
20
25.131708756906619
30
0
11
41.106754163692045
21
25.131708756906477
31
0
0
ARC
5
1D9
100
AcDbEntity
8
PERIMETER
100
AcDbCircle
10
41.106754163692045
20
27.131708756906505
30
0
40
2.0000000000000284
210
0
220
-0
230
1
100
AcDbArc
50
90
51
270
0
LINE
5
1DA
100
AcDbEntity
8
PERIMETER
100
AcDbLine
10
41.106754163692045
20
29.131708756906534
30
0
11
43.406754163692369
21
29.131708756906534
31
0
0
LINE
5
1DB
100
AcDbEntity
8
PERIMETER
100
AcDbLine
10
43.406754163692369
20
29.131708756906534
30
0
11
43.406754163691943
21
64.131541542867581
31
0
0
LINE
5
1DC
100
AcDbEntity
8
PERIMETER
100
AcDbLine
10
43.406754163691943
20
64.131541542867581
30
0
11
-28.605613950476041
21
64.131541542867581
31
0
0
LINE
5
1DD
100
AcDbEntity
8
PERIMETER
100
AcDbLine
10
-28.605613950476041
20
64.131541542867581
30
0
11
-28.637288280341266
21
61.131708758056504
31
0
0
LINE
5
1DE
100
AcDbEntity
8
PERIMETER
100
AcDbLine
10
-28.637288280341266
20
61.131708758056504
30
0
11
-43.343245836707922
21
61.131708758056647
31
0
0
LINE
5
1DF
100
AcDbEntity
8
PERIMETER
100
AcDbLine
10
-43.343245836707922
20
61.131708758056647
30
0
11
-43.343245836707922
21
29.131708756906534
31
0
0
LINE
5
1E0
100
AcDbEntity
8
PERIMETER
100
AcDbLine
10
-43.343245836707922
20
29.131708756906534
30
0
11
-41.043245836707882
21
29.131708756906534
31
0
0
ARC
5
1E1
100
AcDbEntity
8
PERIMETER
100
AcDbCircle
10
-41.043245836707811
20
27.131708756906505
30
0
40
2.0000000000000284
210
0
220
0
230
1
100
AcDbArc
50
-90.000000000002032
51
89.999999999997954
0
LINE
5
1E2
100
AcDbEntity
8
PERIMETER
100
AcDbLine
10
-41.043245836707882
20
25.131708756906477
30
0
11
-43.343245836708064
21
25.131708756906619
31
0
0
LINE
5
1E3
100
AcDbEntity
8
PERIMETER
100
AcDbLine
10
-43.343245836708064
20
25.131708756906619
30
0
11
-43.343245836707922
21
10.050712224440019
31
0
0
LINE
5
1E4
100
AcDbEntity
8
PERIMETER
100
AcDbLine
10
-43.343245836707922
20
10.050712224440019
30
0
11
-42.043726344664236
21
10.081708756906664
31
0
0
ARC
5
1E5
100
AcDbEntity
8
PERIMETER
100
AcDbCircle
10
-42.043726344664307
20
8.0817087569066359
30
0
40
2.0000000000000284
210
-0
220
0
230
1
100
AcDbArc
50
-89.999999999997954
51
90.000000000002032
0
LINE
5
1E6
100
AcDbEntity
8
PERIMETER
100
AcDbLine
10
-42.043726344664236
20
6.0817087569066075
30
0
11
-43.343245836708064
21
6.0817087569066075
31
0
0
LINE
5
1E7
100
AcDbEntity
8
PERIMETER
100
AcDbLine
10
-43.343245836708064
20
6.0817087569066075
30
0
11
-43.343245836708064
21
-1.0682912419434842
31
0
0
LINE
5
1E8
100
AcDbEntity
8
PERIMETER
100
AcDbLine
10
-43.343245836708064
20
-1.0682912419434842
30
0
11
-41.343245836707894
21
-1.0682912419434842
31
0
0
ARC
5
1E9
100
AcDbEntity
8
PERIMETER
100
AcDbCircle
10
-41.343245836707752
20
-3.0682912419433706
30
0
40
1.9999999999998863
210
-0
220
0
230
1
100
AcDbArc
50
0
51
90.000000000004079
0
LINE
5
1EA
100
AcDbEntity
8
PERIMETER
100
AcDbLine
10
-39.343245836707865
20
-3.0682912419435127
30
0
11
-39.343245836707865
21
-4.7682912419435297
31
0
0
ENDSEC
0
SECTION
2
OBJECTS
0
DICTIONARY
5
C
100
AcDbDictionary
3
ACAD_GROUP
350
D
3
ACAD_MLINESTYLE
350
17
0
DICTIONARY
5
D
100
AcDbDictionary
0
DICTIONARY
5
1A
330
C
100
AcDbDictionary
0
DICTIONARY
5
17
100
AcDbDictionary
0
ENDSEC
0
EOF
